<svg width="144" height="41" viewBox="0 0 144 41" fill="none" xmlns="http://www.w3.org/2000/svg">
<path d="M120.547 21.0773C120.547 21.7166 120.541 22.3026 120.527 22.8354C120.527 23.3681 120.541 23.9542 120.567 24.5935L120.927 24.3338L121.147 24.1939C121.799 23.6745 122.365 23.0418 122.845 22.296C123.338 21.5368 123.744 20.731 124.064 19.8786C124.383 19.0262 124.616 18.1538 124.763 17.2614C124.923 16.3557 125.003 15.4966 125.003 14.6842C125.003 14.5243 124.996 14.3046 124.983 14.0249C124.983 13.7319 124.956 13.4455 124.903 13.1658C124.849 12.8861 124.769 12.6464 124.663 12.4466C124.556 12.2335 124.403 12.1269 124.203 12.1269C123.884 12.1269 123.557 12.3201 123.224 12.7063C122.891 13.0926 122.578 13.5521 122.285 14.0848C122.006 14.6176 121.753 15.157 121.526 15.7031C121.3 16.2358 121.133 16.6554 121.027 16.9617C121.027 16.975 121.02 16.9817 121.007 16.9817C121.007 16.9817 121.007 16.9884 121.007 17.0017V17.0217C120.927 17.2081 120.84 17.4079 120.747 17.621C120.667 17.8341 120.614 18.0339 120.587 18.2204C120.561 18.4068 120.541 18.6199 120.527 18.8597C120.514 19.0861 120.507 19.3258 120.507 19.5789C120.507 19.7121 120.507 19.8453 120.507 19.9785C120.521 20.0983 120.527 20.2116 120.527 20.3181C120.527 20.4646 120.527 20.6045 120.527 20.7377C120.541 20.8575 120.547 20.9707 120.547 21.0773ZM121.646 39.3376C121.646 39.6306 121.566 39.8304 121.406 39.937C121.247 40.0435 121.033 40.0968 120.767 40.0968C120.447 40.0968 120.094 40.0435 119.708 39.937C119.322 39.8437 119.016 39.6639 118.789 39.3975C118.723 39.3043 118.656 39.0313 118.589 38.5784C118.536 38.1256 118.483 37.5928 118.43 36.9801C118.376 36.3808 118.33 35.7548 118.29 35.1022C118.25 34.4629 118.21 33.8968 118.17 33.404L118.09 32.3451C117.93 29.4949 117.85 26.6446 117.85 23.7944C117.85 22.1295 117.877 20.4979 117.93 18.8996C117.997 17.288 118.063 15.6565 118.13 14.0049L118.21 11.9072C118.21 11.6941 118.21 11.4876 118.21 11.2878C118.223 11.0747 118.25 10.8683 118.29 10.6685C118.356 10.4954 118.436 10.3622 118.529 10.2689C118.636 10.1624 118.803 10.1091 119.029 10.1091C119.602 10.1091 120.021 10.2823 120.288 10.6285C120.554 10.9615 120.707 11.3744 120.747 11.8672C121.173 11.2812 121.679 10.815 122.265 10.4687C122.865 10.1224 123.551 9.94928 124.323 9.94928C124.976 9.94928 125.522 10.0958 125.961 10.3888C126.414 10.6818 126.774 11.0614 127.04 11.5276C127.307 11.9804 127.493 12.4932 127.6 13.0659C127.72 13.6253 127.78 14.1781 127.78 14.7241C127.78 15.7763 127.686 16.8285 127.5 17.8807C127.313 18.9196 127.02 19.9319 126.621 20.9175C126.235 21.8897 125.742 22.8154 125.142 23.6945C124.543 24.5602 123.837 25.3327 123.025 26.012C122.918 26.1052 122.792 26.2051 122.645 26.3116C122.499 26.4182 122.345 26.5181 122.186 26.6113C122.026 26.7046 121.859 26.7845 121.686 26.8511C121.526 26.9177 121.38 26.951 121.247 26.951C121.1 26.951 120.974 26.9177 120.867 26.8511C120.76 26.7845 120.667 26.7046 120.587 26.6113C120.614 27.5303 120.647 28.4826 120.687 29.4682C120.74 30.4538 120.8 31.4395 120.867 32.4251C120.934 33.424 121.013 34.4096 121.107 35.3819C121.213 36.3542 121.34 37.2931 121.486 38.1988C121.526 38.372 121.56 38.5518 121.586 38.7383C121.626 38.938 121.646 39.1378 121.646 39.3376Z" fill="#2FBF66"/>
<path d="M131.515 9.46979C131.515 9.69622 131.462 9.8627 131.356 9.96926C131.262 10.0625 131.083 10.1091 130.816 10.1091C130.696 10.1091 130.51 10.0958 130.257 10.0691C130.004 10.0292 129.744 9.97592 129.478 9.90932C129.225 9.84273 128.998 9.74949 128.798 9.62962C128.612 9.50975 128.519 9.36324 128.519 9.1901C128.519 9.13682 128.539 8.99031 128.579 8.75057C128.619 8.49751 128.665 8.23113 128.718 7.95143C128.785 7.67173 128.838 7.41867 128.878 7.19225C128.932 6.96583 128.972 6.8393 128.998 6.81266V6.83264C129.065 6.72608 129.145 6.65949 129.238 6.63285C129.331 6.60621 129.424 6.59289 129.518 6.59289C129.638 6.59289 129.791 6.61287 129.977 6.65283C130.177 6.67947 130.37 6.72608 130.557 6.79268C130.756 6.84596 130.936 6.91921 131.096 7.01244C131.256 7.10568 131.356 7.20557 131.396 7.31212C131.436 7.41867 131.456 7.56518 131.456 7.75165C131.469 7.92479 131.469 8.08462 131.456 8.23113C131.456 8.2844 131.449 8.351 131.436 8.43091C131.436 8.49751 131.436 8.55078 131.436 8.59074C131.436 8.65734 131.436 8.72393 131.436 8.79053C131.449 8.85712 131.462 8.92372 131.476 8.99031C131.489 9.05691 131.496 9.13016 131.496 9.21007C131.509 9.28999 131.515 9.37656 131.515 9.46979ZM132.255 25.3926C132.255 25.699 132.181 25.9187 132.035 26.0519C131.902 26.1718 131.682 26.2317 131.376 26.2317C131.216 26.2317 131.036 26.2118 130.836 26.1718C130.65 26.1318 130.463 26.0786 130.277 26.012C130.09 25.9321 129.917 25.8388 129.757 25.7323C129.598 25.6257 129.478 25.5058 129.398 25.3727C129.344 25.2927 129.298 25.0463 129.258 24.6335C129.218 24.2206 129.185 23.7078 129.158 23.0951C129.145 22.4824 129.125 21.7965 129.098 21.0373C129.085 20.2781 129.071 19.5123 129.058 18.7398C129.058 17.9673 129.058 17.2148 129.058 16.4822C129.058 15.7497 129.058 15.1104 129.058 14.5643V13.026C129.058 12.8928 129.058 12.7596 129.058 12.6264C129.071 12.4932 129.098 12.38 129.138 12.2868C129.191 12.1802 129.265 12.0936 129.358 12.027C129.464 11.9604 129.611 11.9271 129.797 11.9271C130.383 11.9271 130.81 12.0936 131.076 12.4266C131.356 12.7463 131.529 13.1791 131.595 13.7252C131.662 14.5377 131.709 15.3501 131.735 16.1626C131.775 16.9617 131.809 17.7742 131.835 18.6C131.862 19.3458 131.882 20.085 131.895 20.8176C131.922 21.5368 131.968 22.256 132.035 22.9752C132.048 23.1217 132.062 23.2616 132.075 23.3948C132.088 23.528 132.108 23.6612 132.135 23.7944C132.161 24.0607 132.188 24.3271 132.215 24.5935C132.241 24.8466 132.255 25.1129 132.255 25.3926Z" fill="#2FBF66"/>
<path d="M143.223 14.9839C143.223 15.5299 143.196 16.1359 143.143 16.8019C143.09 17.4545 143.01 18.1338 142.903 18.8397C142.797 19.5456 142.65 20.2582 142.464 20.9774C142.291 21.6833 142.077 22.3626 141.824 23.0152C141.571 23.6678 141.272 24.2738 140.925 24.8332C140.592 25.3793 140.213 25.8388 139.787 26.2118C139.48 26.4781 139.134 26.6912 138.748 26.8511C138.375 27.0242 137.989 27.1108 137.589 27.1108C137.442 27.1108 137.289 27.0841 137.129 27.0309C136.97 26.9909 136.85 26.8844 136.77 26.7112C136.477 26.6846 136.184 26.6246 135.891 26.5314C135.611 26.4515 135.378 26.265 135.192 25.972C135.152 25.8788 135.118 25.7656 135.092 25.6324C135.065 25.4992 135.038 25.3593 135.012 25.2128C134.998 25.1462 134.985 25.0863 134.972 25.033C134.958 24.9664 134.945 24.9065 134.932 24.8532C134.546 22.4558 134.279 20.0584 134.133 17.661C133.999 15.2636 133.933 12.8462 133.933 10.4088C133.933 10.1957 133.933 9.82275 133.933 9.28999C133.933 8.75723 133.933 8.15122 133.933 7.47195C133.946 6.79268 133.953 6.08011 133.953 5.33425C133.966 4.58839 133.979 3.88914 133.993 3.23651C134.006 2.58388 134.026 2.02448 134.053 1.55832C134.079 1.07884 134.106 0.772501 134.133 0.639311C134.186 0.452845 134.259 0.299677 134.352 0.179806C134.446 0.0599354 134.605 0 134.832 0C135.458 0 135.904 0.199785 136.17 0.599354C136.45 0.985604 136.59 1.46509 136.59 2.0378V7.17227C136.59 7.79826 136.59 8.36432 136.59 8.87044C136.59 9.36324 136.59 9.84939 136.59 10.3289C136.603 10.795 136.617 11.2812 136.63 11.7873C136.643 12.2801 136.663 12.8328 136.69 13.4455C136.85 13.0859 137.043 12.7329 137.269 12.3867C137.509 12.0404 137.775 11.7274 138.068 11.4477C138.361 11.168 138.688 10.9415 139.047 10.7684C139.407 10.5952 139.807 10.5087 140.246 10.5087C140.885 10.5087 141.398 10.6485 141.784 10.9282C142.184 11.2079 142.484 11.5675 142.683 12.0071C142.897 12.4333 143.036 12.9128 143.103 13.4455C143.183 13.9783 143.223 14.491 143.223 14.9839ZM140.466 14.5243C140.466 14.258 140.453 13.9649 140.426 13.6453C140.413 13.3256 140.333 13.0459 140.186 12.8062C140.066 12.8994 139.96 12.9993 139.866 13.1059C139.787 13.2124 139.7 13.3323 139.607 13.4655L139.567 13.5254V13.5054C139.194 14.1181 138.888 14.8307 138.648 15.6431C138.421 16.4556 138.235 17.3014 138.088 18.1804C137.955 19.0461 137.862 19.9119 137.809 20.7776C137.755 21.63 137.729 22.4025 137.729 23.0951C137.729 23.2416 137.729 23.4614 137.729 23.7544C137.742 24.0341 137.769 24.2672 137.809 24.4536C138.328 24.0141 138.754 23.3748 139.087 22.5357C139.434 21.6833 139.707 20.7709 139.906 19.7987C140.12 18.8131 140.266 17.8474 140.346 16.9018C140.426 15.9561 140.466 15.1637 140.466 14.5243Z" fill="#2FBF66"/>
<path d="M0 24.5315V7.00378H3.6459V13.5938H3.75716C3.91691 13.24 4.14799 12.8806 4.45039 12.5154C4.7585 12.1445 5.15789 11.8364 5.64857 11.5911C6.14496 11.3401 6.76117 11.2145 7.4972 11.2145C8.45574 11.2145 9.34012 11.4656 10.1503 11.9677C10.9605 12.4641 11.6081 13.2144 12.0931 14.2185C12.5781 15.217 12.8206 16.4694 12.8206 17.9757C12.8206 19.442 12.5838 20.6802 12.1102 21.6901C11.6423 22.6943 11.0033 23.456 10.1931 23.9752C9.38861 24.4887 8.48712 24.7454 7.48864 24.7454C6.78114 24.7454 6.1792 24.6285 5.68281 24.3945C5.19212 24.1606 4.78988 23.8668 4.47607 23.513C4.16226 23.1536 3.92262 22.7913 3.75716 22.4261H3.59455V24.5315H0ZM3.56887 17.9586C3.56887 18.7403 3.67728 19.4221 3.89409 20.0041C4.11091 20.586 4.42472 21.0396 4.83552 21.3648C5.24633 21.6844 5.74557 21.8441 6.33325 21.8441C6.92663 21.8441 7.42873 21.6815 7.83954 21.3563C8.25034 21.0254 8.5613 20.5689 8.77241 19.9869C8.98922 19.3993 9.09763 18.7231 9.09763 17.9586C9.09763 17.1997 8.99207 16.5322 8.78096 15.9559C8.56986 15.3796 8.2589 14.9289 7.84809 14.6037C7.43729 14.2785 6.93234 14.1158 6.33325 14.1158C5.73986 14.1158 5.23777 14.2727 4.82696 14.5866C4.42186 14.9004 4.11091 15.3454 3.89409 15.9217C3.67728 16.4979 3.56887 17.1769 3.56887 17.9586Z" fill="black"/>
<path d="M15.2533 24.5315V11.3857H18.8992V24.5315H15.2533ZM17.0848 9.69113C16.5428 9.69113 16.0777 9.5114 15.6898 9.15194C15.3075 8.78678 15.1164 8.3503 15.1164 7.8425C15.1164 7.34041 15.3075 6.90963 15.6898 6.55018C16.0777 6.18502 16.5428 6.00244 17.0848 6.00244C17.6268 6.00244 18.089 6.18502 18.4713 6.55018C18.8592 6.90963 19.0532 7.34041 19.0532 7.8425C19.0532 8.3503 18.8592 8.78678 18.4713 9.15194C18.089 9.5114 17.6268 9.69113 17.0848 9.69113Z" fill="black"/>
<path d="M21.8882 24.5315V7.00378H25.5341V13.5938H25.6454C25.8051 13.24 26.0362 12.8806 26.3386 12.5154C26.6467 12.1445 27.0461 11.8364 27.5368 11.5911C28.0332 11.3401 28.6494 11.2145 29.3854 11.2145C30.344 11.2145 31.2283 11.4656 32.0385 11.9677C32.8487 12.4641 33.4963 13.2144 33.9813 14.2185C34.4663 15.217 34.7088 16.4694 34.7088 17.9757C34.7088 19.442 34.472 20.6802 33.9984 21.6901C33.5306 22.6943 32.8915 23.456 32.0813 23.9752C31.2768 24.4887 30.3753 24.7454 29.3769 24.7454C28.6694 24.7454 28.0674 24.6285 27.571 24.3945C27.0803 24.1606 26.6781 23.8668 26.3643 23.513C26.0505 23.1536 25.8108 22.7913 25.6454 22.4261H25.4828V24.5315H21.8882ZM25.4571 17.9586C25.4571 18.7403 25.5655 19.4221 25.7823 20.0041C25.9991 20.586 26.3129 21.0396 26.7237 21.3648C27.1345 21.6844 27.6338 21.8441 28.2215 21.8441C28.8149 21.8441 29.3169 21.6815 29.7278 21.3563C30.1386 21.0254 30.4495 20.5689 30.6606 19.9869C30.8774 19.3993 30.9858 18.7231 30.9858 17.9586C30.9858 17.1997 30.8803 16.5322 30.6692 15.9559C30.4581 15.3796 30.1471 14.9289 29.7363 14.6037C29.3255 14.2785 28.8206 14.1158 28.2215 14.1158C27.6281 14.1158 27.126 14.2727 26.7152 14.5866C26.3101 14.9004 25.9991 15.3454 25.7823 15.9217C25.5655 16.4979 25.4571 17.1769 25.4571 17.9586Z" fill="black"/>
<path d="M40.7874 7.00378V24.5315H37.1415V7.00378H40.7874Z" fill="black"/>
<path d="M43.708 24.5315V11.3857H47.3539V24.5315H43.708ZM45.5395 9.69113C44.9974 9.69113 44.5324 9.5114 44.1445 9.15194C43.7622 8.78678 43.571 8.3503 43.571 7.8425C43.571 7.34041 43.7622 6.90963 44.1445 6.55018C44.5324 6.18502 44.9974 6.00244 45.5395 6.00244C46.0815 6.00244 46.5437 6.18502 46.9259 6.55018C47.3139 6.90963 47.5079 7.34041 47.5079 7.8425C47.5079 8.3503 47.3139 8.78678 46.9259 9.15194C46.5437 9.5114 46.0815 9.69113 45.5395 9.69113Z" fill="black"/>
<path d="M56.214 24.7882C54.8846 24.7882 53.7349 24.5058 52.7649 23.9409C51.8007 23.3704 51.0561 22.5773 50.5312 21.5617C50.0063 20.5404 49.7438 19.3565 49.7438 18.0099C49.7438 16.652 50.0063 15.4652 50.5312 14.4496C51.0561 13.4283 51.8007 12.6352 52.7649 12.0704C53.7349 11.4998 54.8846 11.2145 56.214 11.2145C57.5434 11.2145 58.6902 11.4998 59.6545 12.0704C60.6245 12.6352 61.3719 13.4283 61.8968 14.4496C62.4217 15.4652 62.6842 16.652 62.6842 18.0099C62.6842 19.3565 62.4217 20.5404 61.8968 21.5617C61.3719 22.5773 60.6245 23.3704 59.6545 23.9409C58.6902 24.5058 57.5434 24.7882 56.214 24.7882ZM56.2311 21.9639C56.8359 21.9639 57.3409 21.7928 57.746 21.4504C58.1511 21.1024 58.4563 20.6288 58.6617 20.0297C58.8728 19.4306 58.9784 18.7488 58.9784 17.9843C58.9784 17.2197 58.8728 16.5379 58.6617 15.9388C58.4563 15.3397 58.1511 14.8661 57.746 14.5181C57.3409 14.17 56.8359 13.996 56.2311 13.996C55.6206 13.996 55.1071 14.17 54.6906 14.5181C54.2798 14.8661 53.9688 15.3397 53.7577 15.9388C53.5523 16.5379 53.4496 17.2197 53.4496 17.9843C53.4496 18.7488 53.5523 19.4306 53.7577 20.0297C53.9688 20.6288 54.2798 21.1024 54.6906 21.4504C55.1071 21.7928 55.6206 21.9639 56.2311 21.9639Z" fill="black"/>
<path d="M72.0471 11.3857V14.1244H64.1306V11.3857H72.0471ZM65.9278 8.23619H69.5737V20.4919C69.5737 20.8285 69.6251 21.091 69.7278 21.2793C69.8305 21.4618 69.9731 21.5902 70.1557 21.6644C70.344 21.7386 70.5608 21.7757 70.8062 21.7757C70.9773 21.7757 71.1485 21.7614 71.3197 21.7329C71.4908 21.6986 71.6221 21.673 71.7133 21.6558L72.2868 24.3689C72.1042 24.4259 71.8474 24.4915 71.5165 24.5657C71.1856 24.6456 70.7833 24.6941 70.3098 24.7112C69.4311 24.7454 68.6608 24.6285 67.999 24.3603C67.3428 24.0921 66.8322 23.6756 66.467 23.1108C66.1019 22.5459 65.9221 21.8327 65.9278 20.9712V8.23619Z" fill="black"/>
<path d="M80.2718 24.7882C78.9196 24.7882 77.7556 24.5144 76.7799 23.9666C75.81 23.4132 75.0625 22.6315 74.5376 21.6216C74.0127 20.606 73.7503 19.405 73.7503 18.0185C73.7503 16.6663 74.0127 15.4795 74.5376 14.4582C75.0625 13.4369 75.8014 12.6409 76.7543 12.0704C77.7128 11.4998 78.8368 11.2145 80.1263 11.2145C80.9935 11.2145 81.8009 11.3543 82.5483 11.6339C83.3015 11.9078 83.9576 12.3214 84.5168 12.8749C85.0816 13.4283 85.521 14.1244 85.8348 14.9631C86.1486 15.7962 86.3055 16.7718 86.3055 17.8901V18.8915H75.2052V16.632H82.8736C82.8736 16.1071 82.7594 15.6421 82.5312 15.237C82.303 14.8319 81.9863 14.5152 81.5812 14.287C81.1818 14.0531 80.7168 13.9361 80.1862 13.9361C79.6328 13.9361 79.1421 14.0645 78.7142 14.3212C78.2919 14.5723 77.961 14.9118 77.7214 15.3397C77.4817 15.7619 77.3591 16.2326 77.3534 16.7518V18.9C77.3534 19.5505 77.4732 20.1125 77.7128 20.586C77.9582 21.0596 78.3033 21.4248 78.7484 21.6815C79.1934 21.9383 79.7212 22.0666 80.3317 22.0666C80.7368 22.0666 81.1077 22.0096 81.4443 21.8955C81.7809 21.7814 82.0691 21.6102 82.3087 21.382C82.5483 21.1537 82.7309 20.8742 82.8564 20.5432L86.2285 20.7658C86.0573 21.576 85.7064 22.2835 85.1758 22.8882C84.6509 23.4873 83.9719 23.9552 83.1389 24.2918C82.3115 24.6228 81.3559 24.7882 80.2718 24.7882Z" fill="black"/>
<path d="M94.6243 24.7882C93.2778 24.7882 92.1195 24.5029 91.1496 23.9324C90.1853 23.3561 89.4436 22.5573 88.9244 21.536C88.4109 20.5147 88.1541 19.3393 88.1541 18.0099C88.1541 16.6634 88.4137 15.4823 88.9329 14.4667C89.4579 13.4454 90.2024 12.6495 91.1667 12.0789C92.1309 11.5027 93.2778 11.2145 94.6072 11.2145C95.754 11.2145 96.7582 11.4228 97.6197 11.8393C98.4813 12.2558 99.1631 12.8406 99.6652 13.5938C100.167 14.3469 100.444 15.2313 100.495 16.2469H97.0549C96.9579 15.5907 96.7011 15.063 96.2846 14.6636C95.8738 14.2585 95.3346 14.0559 94.6671 14.0559C94.1022 14.0559 93.6087 14.21 93.1865 14.5181C92.77 14.8205 92.4447 15.2627 92.2108 15.8446C91.9769 16.4266 91.8599 17.1313 91.8599 17.9586C91.8599 18.7973 91.974 19.5105 92.2023 20.0982C92.4362 20.6859 92.7643 21.1338 93.1865 21.4419C93.6087 21.75 94.1022 21.904 94.6671 21.904C95.0836 21.904 95.4573 21.8184 95.7882 21.6473C96.1249 21.4761 96.4016 21.2279 96.6184 20.9027C96.8409 20.5718 96.9864 20.1752 97.0549 19.7131H100.495C100.438 20.7173 100.164 21.6016 99.6738 22.3662C99.1888 23.125 98.5184 23.7184 97.6625 24.1463C96.8067 24.5743 95.794 24.7882 94.6243 24.7882Z" fill="black"/>
<path d="M106.578 24.7797C105.74 24.7797 104.992 24.6342 104.336 24.3432C103.68 24.0465 103.161 23.61 102.778 23.0337C102.402 22.4518 102.213 21.7272 102.213 20.8599C102.213 20.1296 102.348 19.5162 102.616 19.0198C102.884 18.5234 103.249 18.124 103.711 17.8216C104.173 17.5193 104.698 17.291 105.286 17.137C105.879 16.9829 106.501 16.8745 107.152 16.8118C107.916 16.7319 108.532 16.6577 109 16.5892C109.468 16.5151 109.808 16.4067 110.019 16.264C110.23 16.1214 110.335 15.9103 110.335 15.6307V15.5793C110.335 15.0373 110.164 14.6179 109.822 14.3212C109.485 14.0246 109.006 13.8762 108.384 13.8762C107.728 13.8762 107.206 14.0217 106.818 14.3127C106.43 14.598 106.173 14.9574 106.048 15.3911L102.676 15.1172C102.847 14.3184 103.183 13.628 103.686 13.046C104.188 12.4584 104.835 12.0076 105.628 11.6938C106.427 11.3743 107.351 11.2145 108.401 11.2145C109.132 11.2145 109.831 11.3001 110.498 11.4713C111.171 11.6425 111.768 11.9078 112.287 12.2672C112.812 12.6267 113.225 13.0888 113.528 13.6537C113.83 14.2128 113.981 14.8833 113.981 15.6649V24.5315H110.524V22.7085H110.421C110.21 23.1193 109.928 23.4816 109.574 23.7954C109.22 24.1035 108.795 24.346 108.299 24.5229C107.802 24.6941 107.229 24.7797 106.578 24.7797ZM107.622 22.2635C108.159 22.2635 108.632 22.1579 109.043 21.9468C109.454 21.73 109.776 21.439 110.01 21.0739C110.244 20.7087 110.361 20.295 110.361 19.8329V18.4379C110.247 18.512 110.09 18.5805 109.89 18.6433C109.696 18.7003 109.477 18.7545 109.231 18.8059C108.986 18.8515 108.741 18.8943 108.495 18.9342C108.25 18.9685 108.028 18.9999 107.828 19.0284C107.4 19.0912 107.026 19.191 106.707 19.3279C106.387 19.4649 106.139 19.6503 105.962 19.8842C105.785 20.1125 105.697 20.3977 105.697 20.7401C105.697 21.2365 105.877 21.6159 106.236 21.8784C106.601 22.1351 107.063 22.2635 107.622 22.2635Z" fill="black"/>
</svg>
