<svg width="139" height="73" viewBox="0 0 139 73" fill="none" xmlns="http://www.w3.org/2000/svg">
<path d="M33.8303 27.2344C33.3383 25.7116 33.0103 24.3528 32.8463 23.158C32.7058 21.9632 32.6355 20.417 32.6355 18.5194C33.0103 18.1914 33.6194 17.8166 34.4628 17.3949C35.3062 16.9498 36.3136 16.5632 37.485 16.2352C38.6563 15.9072 39.8629 15.7432 41.1045 15.7432C43.9392 15.7432 45.9423 16.3524 47.1137 17.5706C48.3085 18.7888 48.9058 20.6162 48.9058 23.0526C48.9058 24.4114 48.7067 26.2505 48.3085 28.5698C47.6525 32.2947 47.3245 34.2509 47.3245 34.4384C47.3245 34.5555 47.4065 34.6726 47.5705 34.7898C47.7345 34.8835 47.9102 34.9303 48.0976 34.9303C48.3084 34.9303 48.449 34.8483 48.5193 34.6843L48.8707 33.2787L49.6438 30.2917C50.7918 25.9576 52.502 22.4552 54.7744 19.7845C57.0469 17.0903 59.905 15.7432 63.3489 15.7432C65.9259 15.7432 68.0227 16.3055 69.6391 17.43C71.2791 18.5311 72.4622 19.9953 73.1884 21.8227C73.9147 23.6266 74.2778 25.6179 74.2778 27.7967C74.2778 30.7485 73.9967 34.0635 73.4344 37.7416C72.8721 41.3963 72.1225 44.8167 71.1854 48.0028C70.2717 51.1187 68.7489 53.5903 66.617 55.4176C64.5085 57.2216 61.8729 58.1235 58.7102 58.1235C57.5623 58.1235 56.2152 57.9361 54.669 57.5612C53.1462 57.2098 51.2135 56.589 48.8707 55.6988L47.4651 62.3405L47.5353 62.4107L54.2473 61.9539C54.6924 62.5864 55.0204 63.3478 55.2313 64.2381C55.4655 65.1517 55.6647 66.1943 55.8287 67.3656L55.9341 68.0685C55.9341 68.1622 55.4187 68.5956 54.3879 69.3687C53.3571 70.1652 51.9866 70.8915 50.2764 71.5474C48.5662 72.2268 46.5982 72.5665 44.3726 72.5665C39.3357 72.5665 36.8173 69.8841 36.8173 64.5192V62.0945C36.8173 54.9491 36.8641 48.5885 36.9579 43.0128C37.075 37.4136 37.3093 32.365 37.6607 27.867L33.8303 27.2344ZM58.5697 48.7408C59.4131 45.5781 59.8348 40.7872 59.8348 34.3681C59.8348 33.267 59.7762 32.3767 59.659 31.6973C59.1202 31.0179 58.3471 30.6782 57.3397 30.6782C57.0117 30.9594 55.8872 32.8101 53.9662 36.2306C52.0451 39.6275 50.6278 42.2397 49.7141 44.067V45.7538C51.0026 46.6441 52.4903 47.382 54.177 47.9677C55.8638 48.53 57.1523 48.8111 58.0426 48.8111C58.2534 48.8111 58.4291 48.7877 58.5697 48.7408Z" fill="#2FBF66"/>
<path d="M77.8467 6.95795C77.8467 4.89634 78.5144 3.22127 79.8498 1.93276C81.2086 0.644255 83.3639 0 86.3157 0C89.2676 0 91.4112 0.644255 92.7466 1.93276C94.1054 3.22127 94.7848 4.89634 94.7848 6.95795C94.7848 8.12933 94.3748 9.20699 93.5548 10.1909C92.7583 11.1749 91.7041 11.9597 90.3921 12.5454C89.0802 13.1077 87.7214 13.3888 86.3157 13.3888C84.793 13.3888 83.3756 13.0608 82.0637 12.4048C80.7751 11.7254 79.7443 10.8821 78.9712 9.87467C78.2216 8.86729 77.8467 7.89505 77.8467 6.95795ZM76.1248 27.0587C75.8202 25.9108 75.6094 24.8682 75.4923 23.9311C75.3751 22.9706 75.3166 21.9749 75.3166 20.9441L75.3517 19.9602C75.8437 19.3276 76.6051 18.6951 77.6359 18.0626C78.6901 17.4066 79.9083 16.8561 81.2906 16.4109C82.6962 15.9658 84.1487 15.7432 85.6481 15.7432C88.9279 15.7432 91.2589 16.4812 92.6412 17.9571C94.0234 19.4331 94.7145 21.729 94.7145 24.8448C94.7145 26.719 94.4451 29.1672 93.9062 32.1893C93.3908 35.2115 92.7583 38.1516 92.0086 41.0098C91.2824 43.8445 90.6498 45.8709 90.111 47.0892L90.1813 47.1595L95.3822 45.2618C96.3193 46.0584 97.0221 46.9369 97.4906 47.8974C97.9826 48.858 98.2989 49.9708 98.4395 51.2358C98.4395 51.3998 97.924 52.0792 96.8932 53.274C95.8624 54.4454 94.4919 55.5465 92.7817 56.5773C91.0949 57.5847 89.1388 58.0884 86.9131 58.0884C84.6641 58.0884 82.8368 57.4793 81.4311 56.261C80.0489 55.0428 79.3578 52.9578 79.3578 50.0059C79.3578 46.5621 79.4515 42.9074 79.6389 39.0418C79.8263 35.1763 80.1192 31.4279 80.5174 27.7967L76.1248 27.0587Z" fill="#2FBF66"/>
<path d="M100.743 36.1251C100.743 27.457 100.966 19.4565 101.411 12.1237L97.44 11.4209C96.8778 9.26556 96.5966 6.94624 96.5966 4.46293C96.9481 4.01781 97.604 3.46726 98.5646 2.81129C99.5251 2.15533 100.638 1.58135 101.903 1.08938C103.191 0.5974 104.468 0.351412 105.733 0.351412C108.615 0.351412 110.759 1.08938 112.164 2.56531C113.57 4.04124 114.273 6.30198 114.273 9.34755C114.273 11.1515 114.109 13.9393 113.781 17.7112C113.476 21.4595 113.031 25.0791 112.445 28.5698L111.461 34.5438L112.586 34.9303L113.781 30.2917C114.905 25.9576 116.604 22.4552 118.876 19.7845C121.172 17.0903 124.042 15.7432 127.486 15.7432C130.063 15.7432 132.16 16.3055 133.776 17.43C135.416 18.5311 136.599 19.9953 137.325 21.8227C138.052 23.6266 138.415 25.6179 138.415 27.7967C138.415 30.7485 138.134 34.0635 137.571 37.7416C137.009 41.3963 136.259 44.8167 135.322 48.0028C134.409 51.1187 132.886 53.5786 130.754 55.3825C128.645 57.1864 126.01 58.0884 122.847 58.0884C121.605 58.0884 120.012 57.8541 118.068 57.3855C116.123 56.917 113.968 56.1556 111.602 55.1014C111.251 55.6871 110.852 56.261 110.407 56.8233C109.985 57.3855 109.611 57.8072 109.283 58.0884C107.549 58.0884 106.096 57.9478 104.925 57.6667C103.754 57.3855 102.875 57.0927 102.29 56.7881C101.704 56.4602 101.411 56.261 101.411 56.1907C100.966 51.3647 100.743 44.6761 100.743 36.1251ZM122.179 48.8111C122.461 48.8111 122.636 48.7877 122.707 48.7408C123.55 45.5781 123.972 40.7872 123.972 34.3681C123.972 33.267 123.913 32.3767 123.796 31.6973C123.257 31.0179 122.484 30.6782 121.477 30.6782C121.149 30.9594 120.024 32.8101 118.103 36.2306C116.182 39.6275 114.765 42.2397 113.851 44.067V45.7538C115.139 46.6441 116.627 47.382 118.314 47.9677C120.001 48.53 121.289 48.8111 122.179 48.8111Z" fill="#2FBF66"/>
<path d="M0 28.5408H39.2459V41.2217H0V28.5408Z" fill="black"/>
<path d="M1.45286 40.2217V30.1496H3.54795V33.9365H3.61188C3.70368 33.7332 3.83647 33.5266 4.01024 33.3168C4.18729 33.1037 4.4168 32.9266 4.69877 32.7856C4.98401 32.6414 5.33811 32.5693 5.76106 32.5693C6.31188 32.5693 6.82008 32.7135 7.28565 33.002C7.75122 33.2873 8.12336 33.7184 8.40205 34.2955C8.68073 34.8693 8.82008 35.5889 8.82008 36.4545C8.82008 37.2971 8.68401 38.0086 8.41188 38.5889C8.14303 39.166 7.77582 39.6037 7.31024 39.902C6.84795 40.1971 6.32991 40.3447 5.75614 40.3447C5.34959 40.3447 5.00368 40.2775 4.71844 40.143C4.43647 40.0086 4.20532 39.8397 4.025 39.6365C3.84467 39.4299 3.70696 39.2217 3.61188 39.0119H3.51844V40.2217H1.45286ZM3.50368 36.4447C3.50368 36.8938 3.56598 37.2856 3.69057 37.6201C3.81516 37.9545 3.99549 38.2152 4.23155 38.402C4.46762 38.5856 4.7545 38.6775 5.09221 38.6775C5.43319 38.6775 5.72172 38.584 5.95778 38.3971C6.19385 38.207 6.37254 37.9447 6.49385 37.6102C6.61844 37.2725 6.68073 36.884 6.68073 36.4447C6.68073 36.0086 6.62008 35.625 6.49877 35.2938C6.37745 34.9627 6.19877 34.7037 5.9627 34.5168C5.72663 34.3299 5.43647 34.2365 5.09221 34.2365C4.75122 34.2365 4.4627 34.3266 4.22663 34.507C3.99385 34.6873 3.81516 34.943 3.69057 35.2742C3.56598 35.6053 3.50368 35.9955 3.50368 36.4447Z" fill="white"/>
<path d="M10.218 40.2217V32.6676H12.3131V40.2217H10.218ZM11.2705 31.6938C10.959 31.6938 10.6918 31.5906 10.4688 31.384C10.2492 31.1742 10.1393 30.9234 10.1393 30.6315C10.1393 30.343 10.2492 30.0955 10.4688 29.8889C10.6918 29.6791 10.959 29.5742 11.2705 29.5742C11.582 29.5742 11.8475 29.6791 12.0672 29.8889C12.2902 30.0955 12.4016 30.343 12.4016 30.6315C12.4016 30.9234 12.2902 31.1742 12.0672 31.384C11.8475 31.5906 11.582 31.6938 11.2705 31.6938Z" fill="white"/>
<path d="M14.0307 40.2217V30.1496H16.1258V33.9365H16.1898C16.2816 33.7332 16.4143 33.5266 16.5881 33.3168C16.7652 33.1037 16.9947 32.9266 17.2766 32.7856C17.5619 32.6414 17.916 32.5693 18.3389 32.5693C18.8898 32.5693 19.3979 32.7135 19.8635 33.002C20.3291 33.2873 20.7012 33.7184 20.9799 34.2955C21.2586 34.8693 21.3979 35.5889 21.3979 36.4545C21.3979 37.2971 21.2619 38.0086 20.9898 38.5889C20.7209 39.166 20.3537 39.6037 19.8881 39.902C19.4258 40.1971 18.9078 40.3447 18.334 40.3447C17.9275 40.3447 17.5816 40.2775 17.2963 40.143C17.0143 40.0086 16.7832 39.8397 16.6029 39.6365C16.4225 39.4299 16.2848 39.2217 16.1898 39.0119H16.0963V40.2217H14.0307ZM16.0816 36.4447C16.0816 36.8938 16.1439 37.2856 16.2684 37.6201C16.393 37.9545 16.5734 38.2152 16.8094 38.402C17.0455 38.5856 17.3324 38.6775 17.6701 38.6775C18.0111 38.6775 18.2996 38.584 18.5357 38.3971C18.7717 38.207 18.9504 37.9447 19.0717 37.6102C19.1963 37.2725 19.2586 36.884 19.2586 36.4447C19.2586 36.0086 19.1979 35.625 19.0766 35.2938C18.9553 34.9627 18.7766 34.7037 18.5406 34.5168C18.3045 34.3299 18.0143 34.2365 17.6701 34.2365C17.3291 34.2365 17.0406 34.3266 16.8045 34.507C16.5717 34.6873 16.393 34.943 16.2684 35.2742C16.1439 35.6053 16.0816 35.9955 16.0816 36.4447Z" fill="white"/>
<path d="M24.891 30.1496V40.2217H22.7959V30.1496H24.891Z" fill="white"/>
<path d="M26.5693 40.2217V32.6676H28.6643V40.2217H26.5693ZM27.6217 31.6938C27.3102 31.6938 27.043 31.5906 26.8201 31.384C26.6004 31.1742 26.4906 30.9234 26.4906 30.6315C26.4906 30.343 26.6004 30.0955 26.8201 29.8889C27.043 29.6791 27.3102 29.5742 27.6217 29.5742C27.9332 29.5742 28.1988 29.6791 28.4184 29.8889C28.6414 30.0955 28.7529 30.343 28.7529 30.6315C28.7529 30.9234 28.6414 31.1742 28.4184 31.384C28.1988 31.5906 27.9332 31.6938 27.6217 31.6938Z" fill="white"/>
<path d="M33.7557 40.3693C32.9918 40.3693 32.3311 40.207 31.7738 39.8824C31.2197 39.5545 30.7918 39.0988 30.4902 38.5152C30.1885 37.9283 30.0377 37.2479 30.0377 36.4742C30.0377 35.6938 30.1885 35.0119 30.4902 34.4283C30.7918 33.8414 31.2197 33.3856 31.7738 33.0611C32.3311 32.7332 32.9918 32.5693 33.7557 32.5693C34.5197 32.5693 35.1787 32.7332 35.7328 33.0611C36.2902 33.3856 36.7197 33.8414 37.0213 34.4283C37.3229 35.0119 37.4738 35.6938 37.4738 36.4742C37.4738 37.2479 37.3229 37.9283 37.0213 38.5152C36.7197 39.0988 36.2902 39.5545 35.7328 39.8824C35.1787 40.207 34.5197 40.3693 33.7557 40.3693ZM33.7656 38.7463C34.1131 38.7463 34.4033 38.6479 34.6361 38.4512C34.8688 38.2512 35.0443 37.9791 35.1623 37.6348C35.2836 37.2906 35.3443 36.8988 35.3443 36.4594C35.3443 36.0201 35.2836 35.6283 35.1623 35.284C35.0443 34.9397 34.8688 34.6676 34.6361 34.4676C34.4033 34.2676 34.1131 34.1676 33.7656 34.1676C33.4148 34.1676 33.1197 34.2676 32.8803 34.4676C32.6443 34.6676 32.4656 34.9397 32.3443 35.284C32.2262 35.6283 32.1672 36.0201 32.1672 36.4594C32.1672 36.8988 32.2262 37.2906 32.3443 37.6348C32.4656 37.9791 32.6443 38.2512 32.8803 38.4512C33.1197 38.6479 33.4148 38.7463 33.7656 38.7463Z" fill="white"/>
<path d="M13.3071 42.1214H45.5584V54.8023H13.3071V42.1214Z" fill="black"/>
<path d="M19.426 45.5768V47.1506H14.8768V45.5768H19.426ZM15.9096 43.767H18.0047V50.8096C18.0047 51.003 18.0342 51.1539 18.0932 51.2621C18.1522 51.367 18.2342 51.4408 18.3391 51.4834C18.4473 51.526 18.5719 51.5473 18.7129 51.5473C18.8113 51.5473 18.9096 51.5391 19.008 51.5227C19.1063 51.503 19.1818 51.4883 19.2342 51.4785L19.5637 53.0375C19.4588 53.0703 19.3113 53.108 19.1211 53.1506C18.9309 53.1965 18.6998 53.2244 18.4277 53.2342C17.9227 53.2539 17.4801 53.1867 17.0998 53.0326C16.7227 52.8785 16.4293 52.6391 16.2195 52.3145C16.0096 51.9899 15.9063 51.5801 15.9096 51.085V43.767Z" fill="white"/>
<path d="M24.1522 53.2785C23.3752 53.2785 22.7063 53.1211 22.1457 52.8063C21.5883 52.4883 21.1588 52.0391 20.8572 51.4588C20.5555 50.8752 20.4047 50.185 20.4047 49.3883C20.4047 48.6112 20.5555 47.9293 20.8572 47.3424C21.1588 46.7555 21.5834 46.2981 22.1309 45.9703C22.6818 45.6424 23.3277 45.4785 24.0686 45.4785C24.567 45.4785 25.0309 45.5588 25.4604 45.7194C25.8932 45.8768 26.2703 46.1145 26.5916 46.4326C26.9162 46.7506 27.1686 47.1506 27.349 47.6326C27.5293 48.1112 27.6195 48.6719 27.6195 49.3145V49.8899H21.2408V48.5916H25.6473C25.6473 48.2899 25.5818 48.0227 25.4506 47.7899C25.3195 47.5571 25.1375 47.3752 24.9047 47.244C24.6752 47.1096 24.408 47.0424 24.1031 47.0424C23.785 47.0424 23.5031 47.1162 23.2572 47.2637C23.0145 47.408 22.8244 47.603 22.6867 47.8489C22.549 48.0916 22.4785 48.3621 22.4752 48.6604V49.8949C22.4752 50.2686 22.544 50.5916 22.6818 50.8637C22.8227 51.1358 23.0211 51.3457 23.2768 51.4932C23.5326 51.6408 23.8359 51.7145 24.1867 51.7145C24.4195 51.7145 24.6326 51.6817 24.826 51.6162C25.0195 51.5506 25.185 51.4522 25.3227 51.3211C25.4604 51.1899 25.5654 51.0293 25.6375 50.8391L27.5752 50.967C27.4768 51.4326 27.2752 51.8391 26.9703 52.1867C26.6686 52.5309 26.2785 52.7998 25.7998 52.9932C25.3244 53.1834 24.7752 53.2785 24.1522 53.2785Z" fill="white"/>
<path d="M32.3998 53.2785C31.626 53.2785 30.9604 53.1145 30.4031 52.7867C29.849 52.4555 29.4227 51.9965 29.1244 51.4096C28.8293 50.8227 28.6818 50.1473 28.6818 49.3834C28.6818 48.6096 28.8309 47.9309 29.1293 47.3473C29.4309 46.7604 29.8588 46.303 30.4129 45.9752C30.967 45.644 31.626 45.4785 32.3899 45.4785C33.049 45.4785 33.626 45.5981 34.1211 45.8375C34.6162 46.0768 35.008 46.4129 35.2965 46.8457C35.585 47.2785 35.744 47.7867 35.7736 48.3703H33.7965C33.7408 47.9932 33.5932 47.6899 33.3539 47.4604C33.1178 47.2276 32.808 47.1112 32.4244 47.1112C32.0998 47.1112 31.8162 47.1998 31.5736 47.3768C31.3342 47.5506 31.1473 47.8047 31.0129 48.1391C30.8785 48.4735 30.8113 48.8785 30.8113 49.3539C30.8113 49.8358 30.8768 50.2457 31.008 50.5834C31.1424 50.9211 31.3309 51.1785 31.5736 51.3555C31.8162 51.5326 32.0998 51.6211 32.4244 51.6211C32.6637 51.6211 32.8785 51.5719 33.0686 51.4735C33.2621 51.3752 33.4211 51.2326 33.5457 51.0457C33.6736 50.8555 33.7572 50.6276 33.7965 50.3621H35.7736C35.7408 50.9391 35.5834 51.4473 35.3014 51.8867C35.0227 52.3227 34.6375 52.6637 34.1457 52.9096C33.6539 53.1555 33.0719 53.2785 32.3998 53.2785Z" fill="white"/>
<path d="M39.2691 53.2735C38.7871 53.2735 38.3576 53.1899 37.9805 53.0227C37.6035 52.8522 37.3051 52.6014 37.0854 52.2703C36.869 51.9358 36.7609 51.5194 36.7609 51.0211C36.7609 50.6014 36.8379 50.2489 36.992 49.9637C37.1461 49.6785 37.3559 49.449 37.6215 49.2752C37.8871 49.1014 38.1887 48.9703 38.5264 48.8817C38.8674 48.7932 39.2248 48.7309 39.5986 48.6949C40.0379 48.6489 40.392 48.6063 40.6609 48.567C40.9297 48.5244 41.1248 48.4621 41.2461 48.3801C41.3674 48.2981 41.4281 48.1768 41.4281 48.0162V47.9867C41.4281 47.6752 41.3297 47.4342 41.133 47.2637C40.9395 47.0932 40.6641 47.008 40.3068 47.008C39.9297 47.008 39.6297 47.0916 39.4068 47.2588C39.1838 47.4227 39.0363 47.6293 38.9641 47.8785L37.0264 47.7211C37.1248 47.2621 37.3182 46.8653 37.6068 46.5309C37.8953 46.1932 38.2674 45.9342 38.7231 45.7539C39.1822 45.5703 39.7133 45.4785 40.3166 45.4785C40.7363 45.4785 41.1379 45.5276 41.5215 45.626C41.9084 45.7244 42.251 45.8768 42.5494 46.0834C42.851 46.2899 43.0887 46.5555 43.2625 46.8801C43.4363 47.2014 43.5231 47.5867 43.5231 48.0358V53.1309H41.5363V52.0834H41.4772C41.3559 52.3194 41.1936 52.5276 40.9904 52.708C40.7871 52.885 40.5428 53.0244 40.2576 53.126C39.9723 53.2244 39.6428 53.2735 39.2691 53.2735ZM39.869 51.8276C40.1772 51.8276 40.4494 51.767 40.6854 51.6457C40.9215 51.5211 41.1068 51.3539 41.2412 51.144C41.3756 50.9342 41.4428 50.6965 41.4428 50.4309V49.6293C41.3772 49.6719 41.2871 49.7112 41.1723 49.7473C41.0608 49.7801 40.9346 49.8112 40.7936 49.8408C40.6527 49.867 40.5117 49.8916 40.3707 49.9145C40.2297 49.9342 40.1018 49.9522 39.9871 49.9686C39.7412 50.0047 39.5264 50.0621 39.3428 50.1408C39.1592 50.2194 39.0166 50.326 38.915 50.4604C38.8133 50.5916 38.7625 50.7555 38.7625 50.9522C38.7625 51.2375 38.8658 51.4555 39.0723 51.6063C39.2822 51.7539 39.5477 51.8276 39.869 51.8276Z" fill="white"/>
</svg>
