<svg width="252" height="73" viewBox="0 0 252 73" fill="none" xmlns="http://www.w3.org/2000/svg">
<path d="M33.8303 27.2344C33.3383 25.7116 33.0104 24.3528 32.8464 23.158C32.7058 21.9632 32.6355 20.417 32.6355 18.5194C33.0104 18.1914 33.6195 17.8166 34.4629 17.3949C35.3062 16.9498 36.3136 16.5632 37.485 16.2352C38.6564 15.9072 39.8629 15.7432 41.1045 15.7432C43.9393 15.7432 45.9423 16.3524 47.1137 17.5706C48.3085 18.7888 48.9059 20.6162 48.9059 23.0526C48.9059 24.4114 48.7067 26.2505 48.3085 28.5698C47.6525 32.2947 47.3245 34.2509 47.3245 34.4384C47.3245 34.5555 47.4065 34.6726 47.5705 34.7898C47.7345 34.8835 47.9102 34.9303 48.0976 34.9303C48.3085 34.9303 48.449 34.8483 48.5193 34.6843L48.8707 33.2787L49.6438 30.2917C50.7918 25.9576 52.502 22.4552 54.7745 19.7845C57.0469 17.0903 59.9051 15.7432 63.3489 15.7432C65.9259 15.7432 68.0227 16.3055 69.6392 17.43C71.2791 18.5311 72.4622 19.9953 73.1884 21.8227C73.9147 23.6266 74.2778 25.6179 74.2778 27.7967C74.2778 30.7485 73.9967 34.0635 73.4344 37.7416C72.8722 41.3963 72.1225 44.8167 71.1854 48.0028C70.2717 51.1187 68.7489 53.5903 66.617 55.4176C64.5086 57.2216 61.873 58.1235 58.7103 58.1235C57.5623 58.1235 56.2152 57.9361 54.669 57.5612C53.1462 57.2098 51.2135 56.589 48.8707 55.6988L47.4651 62.3405L47.5354 62.4107L54.2473 61.9539C54.6925 62.5864 55.0204 63.3478 55.2313 64.2381C55.4656 65.1517 55.6647 66.1943 55.8287 67.3656L55.9341 68.0685C55.9341 68.1622 55.4187 68.5956 54.3879 69.3687C53.3571 70.1652 51.9866 70.8915 50.2764 71.5474C48.5662 72.2268 46.5983 72.5665 44.3727 72.5665C39.3358 72.5665 36.8173 69.8841 36.8173 64.5192V62.0945C36.8173 54.9491 36.8642 48.5885 36.9579 43.0128C37.075 37.4136 37.3093 32.365 37.6607 27.867L33.8303 27.2344ZM58.5697 48.7408C59.4131 45.5781 59.8348 40.7872 59.8348 34.3681C59.8348 33.267 59.7762 32.3767 59.6591 31.6973C59.1202 31.0179 58.3471 30.6782 57.3398 30.6782C57.0118 30.9594 55.8873 32.8101 53.9662 36.2306C52.0452 39.6275 50.6278 42.2397 49.7141 44.067V45.7538C51.0026 46.6441 52.4903 47.382 54.1771 47.9677C55.8638 48.53 57.1523 48.8111 58.0426 48.8111C58.2534 48.8111 58.4291 48.7877 58.5697 48.7408Z" fill="#2FBF66"/>
<path d="M77.8467 6.95795C77.8467 4.89634 78.5144 3.22127 79.8498 1.93276C81.2086 0.644255 83.3639 0 86.3158 0C89.2676 0 91.4112 0.644255 92.7466 1.93276C94.1054 3.22127 94.7848 4.89634 94.7848 6.95795C94.7848 8.12933 94.3748 9.20699 93.5549 10.1909C92.7583 11.1749 91.7041 11.9597 90.3922 12.5454C89.0802 13.1077 87.7214 13.3888 86.3158 13.3888C84.793 13.3888 83.3756 13.0608 82.0637 12.4048C80.7752 11.7254 79.7444 10.8821 78.9713 9.87467C78.2216 8.86729 77.8467 7.89505 77.8467 6.95795ZM76.1248 27.0587C75.8203 25.9108 75.6094 24.8682 75.4923 23.9311C75.3752 22.9706 75.3166 21.9749 75.3166 20.9441L75.3517 19.9602C75.8437 19.3276 76.6051 18.6951 77.6359 18.0626C78.6901 17.4066 79.9084 16.8561 81.2906 16.4109C82.6962 15.9658 84.1487 15.7432 85.6481 15.7432C88.9279 15.7432 91.259 16.4812 92.6412 17.9571C94.0234 19.4331 94.7145 21.729 94.7145 24.8448C94.7145 26.719 94.4451 29.1672 93.9063 32.1893C93.3909 35.2115 92.7583 38.1516 92.0086 41.0098C91.2824 43.8445 90.6499 45.8709 90.111 47.0892L90.1813 47.1595L95.3822 45.2618C96.3193 46.0584 97.0221 46.9369 97.4907 47.8974C97.9826 48.858 98.2989 49.9708 98.4395 51.2358C98.4395 51.3998 97.9241 52.0792 96.8933 53.274C95.8625 54.4454 94.492 55.5465 92.7818 56.5773C91.095 57.5847 89.1388 58.0884 86.9132 58.0884C84.6641 58.0884 82.8368 57.4793 81.4312 56.261C80.0489 55.0428 79.3578 52.9578 79.3578 50.0059C79.3578 46.5621 79.4515 42.9074 79.639 39.0418C79.8264 35.1763 80.1192 31.4279 80.5175 27.7967L76.1248 27.0587Z" fill="#2FBF66"/>
<path d="M100.743 36.1251C100.743 27.457 100.966 19.4565 101.411 12.1237L97.4401 11.4209C96.8778 9.26556 96.5967 6.94624 96.5967 4.46293C96.9481 4.01781 97.6041 3.46726 98.5646 2.81129C99.5251 2.15533 100.638 1.58135 101.903 1.08938C103.192 0.5974 104.468 0.351412 105.733 0.351412C108.615 0.351412 110.759 1.08938 112.164 2.56531C113.57 4.04124 114.273 6.30198 114.273 9.34755C114.273 11.1515 114.109 13.9393 113.781 17.7112C113.476 21.4595 113.031 25.0791 112.445 28.5698L111.461 34.5438L112.586 34.9303L113.781 30.2917C114.905 25.9576 116.604 22.4552 118.876 19.7845C121.172 17.0903 124.042 15.7432 127.486 15.7432C130.063 15.7432 132.16 16.3055 133.776 17.43C135.416 18.5311 136.599 19.9953 137.325 21.8227C138.052 23.6266 138.415 25.6179 138.415 27.7967C138.415 30.7485 138.134 34.0635 137.571 37.7416C137.009 41.3963 136.259 44.8167 135.322 48.0028C134.409 51.1187 132.886 53.5786 130.754 55.3825C128.645 57.1864 126.01 58.0884 122.847 58.0884C121.605 58.0884 120.012 57.8541 118.068 57.3855C116.123 56.917 113.968 56.1556 111.602 55.1014C111.251 55.6871 110.852 56.261 110.407 56.8233C109.985 57.3855 109.611 57.8072 109.283 58.0884C107.549 58.0884 106.097 57.9478 104.925 57.6667C103.754 57.3855 102.875 57.0927 102.29 56.7881C101.704 56.4602 101.411 56.261 101.411 56.1907C100.966 51.3647 100.743 44.6761 100.743 36.1251ZM122.179 48.8111C122.461 48.8111 122.636 48.7877 122.707 48.7408C123.55 45.5781 123.972 40.7872 123.972 34.3681C123.972 33.267 123.913 32.3767 123.796 31.6973C123.257 31.0179 122.484 30.6782 121.477 30.6782C121.149 30.9594 120.024 32.8101 118.103 36.2306C116.182 39.6275 114.765 42.2397 113.851 44.067V45.7538C115.14 46.6441 116.627 47.382 118.314 47.9677C120.001 48.53 121.289 48.8111 122.179 48.8111Z" fill="#2FBF66"/>
<path d="M0 28.5408H39.2459V41.2217H0V28.5408Z" fill="black"/>
<path d="M1.45286 40.2217V30.1496H3.54795V33.9365H3.61188C3.70368 33.7332 3.83647 33.5266 4.01024 33.3168C4.18729 33.1037 4.4168 32.9266 4.69877 32.7856C4.98401 32.6414 5.33811 32.5693 5.76106 32.5693C6.31188 32.5693 6.82008 32.7135 7.28565 33.002C7.75122 33.2873 8.12336 33.7184 8.40205 34.2955C8.68073 34.8693 8.82008 35.5889 8.82008 36.4545C8.82008 37.2971 8.68401 38.0086 8.41188 38.5889C8.14303 39.166 7.77582 39.6037 7.31024 39.902C6.84795 40.1971 6.32991 40.3447 5.75614 40.3447C5.34959 40.3447 5.00368 40.2775 4.71844 40.143C4.43647 40.0086 4.20532 39.8397 4.025 39.6365C3.84467 39.4299 3.70696 39.2217 3.61188 39.0119H3.51844V40.2217H1.45286ZM3.50368 36.4447C3.50368 36.8938 3.56598 37.2856 3.69057 37.6201C3.81516 37.9545 3.99549 38.2152 4.23155 38.402C4.46762 38.5856 4.7545 38.6775 5.09221 38.6775C5.43319 38.6775 5.72172 38.584 5.95778 38.3971C6.19385 38.207 6.37254 37.9447 6.49385 37.6102C6.61844 37.2725 6.68073 36.884 6.68073 36.4447C6.68073 36.0086 6.62008 35.625 6.49877 35.2938C6.37745 34.9627 6.19877 34.7037 5.9627 34.5168C5.72663 34.3299 5.43647 34.2365 5.09221 34.2365C4.75122 34.2365 4.4627 34.3266 4.22663 34.507C3.99385 34.6873 3.81516 34.943 3.69057 35.2742C3.56598 35.6053 3.50368 35.9955 3.50368 36.4447Z" fill="white"/>
<path d="M10.218 40.2217V32.6676H12.3131V40.2217H10.218ZM11.2705 31.6938C10.959 31.6938 10.6918 31.5906 10.4688 31.384C10.2492 31.1742 10.1393 30.9234 10.1393 30.6315C10.1393 30.343 10.2492 30.0955 10.4688 29.8889C10.6918 29.6791 10.959 29.5742 11.2705 29.5742C11.582 29.5742 11.8475 29.6791 12.0672 29.8889C12.2902 30.0955 12.4016 30.343 12.4016 30.6315C12.4016 30.9234 12.2902 31.1742 12.0672 31.384C11.8475 31.5906 11.582 31.6938 11.2705 31.6938Z" fill="white"/>
<path d="M14.0307 40.2217V30.1496H16.1258V33.9365H16.1898C16.2816 33.7332 16.4143 33.5266 16.5881 33.3168C16.7652 33.1037 16.9947 32.9266 17.2766 32.7856C17.5619 32.6414 17.916 32.5693 18.3389 32.5693C18.8898 32.5693 19.3979 32.7135 19.8635 33.002C20.3291 33.2873 20.7012 33.7184 20.9799 34.2955C21.2586 34.8693 21.3979 35.5889 21.3979 36.4545C21.3979 37.2971 21.2619 38.0086 20.9898 38.5889C20.7209 39.166 20.3537 39.6037 19.8881 39.902C19.4258 40.1971 18.9078 40.3447 18.334 40.3447C17.9275 40.3447 17.5816 40.2775 17.2963 40.143C17.0143 40.0086 16.7832 39.8397 16.6029 39.6365C16.4225 39.4299 16.2848 39.2217 16.1898 39.0119H16.0963V40.2217H14.0307ZM16.0816 36.4447C16.0816 36.8938 16.1439 37.2856 16.2684 37.6201C16.393 37.9545 16.5734 38.2152 16.8094 38.402C17.0455 38.5856 17.3324 38.6775 17.6701 38.6775C18.0111 38.6775 18.2996 38.584 18.5357 38.3971C18.7717 38.207 18.9504 37.9447 19.0717 37.6102C19.1963 37.2725 19.2586 36.884 19.2586 36.4447C19.2586 36.0086 19.1979 35.625 19.0766 35.2938C18.9553 34.9627 18.7766 34.7037 18.5406 34.5168C18.3045 34.3299 18.0143 34.2365 17.6701 34.2365C17.3291 34.2365 17.0406 34.3266 16.8045 34.507C16.5717 34.6873 16.393 34.943 16.2684 35.2742C16.1439 35.6053 16.0816 35.9955 16.0816 36.4447Z" fill="white"/>
<path d="M24.891 30.1496V40.2217H22.7959V30.1496H24.891Z" fill="white"/>
<path d="M26.5693 40.2217V32.6676H28.6643V40.2217H26.5693ZM27.6217 31.6938C27.3102 31.6938 27.043 31.5906 26.8201 31.384C26.6004 31.1742 26.4906 30.9234 26.4906 30.6315C26.4906 30.343 26.6004 30.0955 26.8201 29.8889C27.043 29.6791 27.3102 29.5742 27.6217 29.5742C27.9332 29.5742 28.1988 29.6791 28.4184 29.8889C28.6414 30.0955 28.7529 30.343 28.7529 30.6315C28.7529 30.9234 28.6414 31.1742 28.4184 31.384C28.1988 31.5906 27.9332 31.6938 27.6217 31.6938Z" fill="white"/>
<path d="M33.7557 40.3693C32.9918 40.3693 32.3311 40.207 31.7738 39.8824C31.2197 39.5545 30.7918 39.0988 30.4902 38.5152C30.1885 37.9283 30.0377 37.2479 30.0377 36.4742C30.0377 35.6938 30.1885 35.0119 30.4902 34.4283C30.7918 33.8414 31.2197 33.3856 31.7738 33.0611C32.3311 32.7332 32.9918 32.5693 33.7557 32.5693C34.5197 32.5693 35.1787 32.7332 35.7328 33.0611C36.2902 33.3856 36.7197 33.8414 37.0213 34.4283C37.3229 35.0119 37.4738 35.6938 37.4738 36.4742C37.4738 37.2479 37.3229 37.9283 37.0213 38.5152C36.7197 39.0988 36.2902 39.5545 35.7328 39.8824C35.1787 40.207 34.5197 40.3693 33.7557 40.3693ZM33.7656 38.7463C34.1131 38.7463 34.4033 38.6479 34.6361 38.4512C34.8688 38.2512 35.0443 37.9791 35.1623 37.6348C35.2836 37.2906 35.3443 36.8988 35.3443 36.4594C35.3443 36.0201 35.2836 35.6283 35.1623 35.284C35.0443 34.9397 34.8688 34.6676 34.6361 34.4676C34.4033 34.2676 34.1131 34.1676 33.7656 34.1676C33.4148 34.1676 33.1197 34.2676 32.8803 34.4676C32.6443 34.6676 32.4656 34.9397 32.3443 35.284C32.2262 35.6283 32.1672 36.0201 32.1672 36.4594C32.1672 36.8988 32.2262 37.2906 32.3443 37.6348C32.4656 37.9791 32.6443 38.2512 32.8803 38.4512C33.1197 38.6479 33.4148 38.7463 33.7656 38.7463Z" fill="white"/>
<path d="M13.3071 42.1214H45.5585V54.8023H13.3071V42.1214Z" fill="black"/>
<path d="M19.426 45.5768V47.1506H14.8769V45.5768H19.426ZM15.9097 43.767H18.0047V50.8096C18.0047 51.003 18.0342 51.1539 18.0933 51.2621C18.1523 51.367 18.2342 51.4408 18.3392 51.4834C18.4474 51.526 18.5719 51.5473 18.7129 51.5473C18.8113 51.5473 18.9097 51.5391 19.008 51.5227C19.1064 51.503 19.1818 51.4883 19.2342 51.4785L19.5637 53.0375C19.4588 53.0703 19.3113 53.108 19.1211 53.1506C18.931 53.1965 18.6998 53.2244 18.4277 53.2342C17.9228 53.2539 17.4801 53.1867 17.0998 53.0326C16.7228 52.8785 16.4293 52.6391 16.2195 52.3145C16.0097 51.9899 15.9064 51.5801 15.9097 51.085V43.767Z" fill="white"/>
<path d="M24.1523 53.2785C23.3752 53.2785 22.7064 53.1211 22.1457 52.8063C21.5883 52.4883 21.1588 52.0391 20.8572 51.4588C20.5556 50.8752 20.4047 50.185 20.4047 49.3883C20.4047 48.6112 20.5556 47.9293 20.8572 47.3424C21.1588 46.7555 21.5834 46.2981 22.131 45.9703C22.6818 45.6424 23.3277 45.4785 24.0687 45.4785C24.567 45.4785 25.031 45.5588 25.4605 45.7194C25.8933 45.8768 26.2703 46.1145 26.5916 46.4326C26.9162 46.7506 27.1687 47.1506 27.349 47.6326C27.5293 48.1112 27.6195 48.6719 27.6195 49.3145V49.8899H21.2408V48.5916H25.6474C25.6474 48.2899 25.5818 48.0227 25.4506 47.7899C25.3195 47.5571 25.1375 47.3752 24.9047 47.244C24.6752 47.1096 24.408 47.0424 24.1031 47.0424C23.7851 47.0424 23.5031 47.1162 23.2572 47.2637C23.0146 47.408 22.8244 47.603 22.6867 47.8489C22.549 48.0916 22.4785 48.3621 22.4752 48.6604V49.8949C22.4752 50.2686 22.5441 50.5916 22.6818 50.8637C22.8228 51.1358 23.0211 51.3457 23.2769 51.4932C23.5326 51.6408 23.8359 51.7145 24.1867 51.7145C24.4195 51.7145 24.6326 51.6817 24.826 51.6162C25.0195 51.5506 25.1851 51.4522 25.3228 51.3211C25.4605 51.1899 25.5654 51.0293 25.6375 50.8391L27.5752 50.967C27.4769 51.4326 27.2752 51.8391 26.9703 52.1867C26.6687 52.5309 26.2785 52.7998 25.7998 52.9932C25.3244 53.1834 24.7752 53.2785 24.1523 53.2785Z" fill="white"/>
<path d="M32.3998 53.2785C31.626 53.2785 30.9605 53.1145 30.4031 52.7867C29.849 52.4555 29.4228 51.9965 29.1244 51.4096C28.8293 50.8227 28.6818 50.1473 28.6818 49.3834C28.6818 48.6096 28.831 47.9309 29.1293 47.3473C29.431 46.7604 29.8588 46.303 30.4129 45.9752C30.967 45.644 31.626 45.4785 32.39 45.4785C33.049 45.4785 33.626 45.5981 34.1211 45.8375C34.6162 46.0768 35.008 46.4129 35.2965 46.8457C35.5851 47.2785 35.7441 47.7867 35.7736 48.3703H33.7965C33.7408 47.9932 33.5933 47.6899 33.3539 47.4604C33.1178 47.2276 32.808 47.1112 32.4244 47.1112C32.0998 47.1112 31.8162 47.1998 31.5736 47.3768C31.3342 47.5506 31.1474 47.8047 31.0129 48.1391C30.8785 48.4735 30.8113 48.8785 30.8113 49.3539C30.8113 49.8358 30.8769 50.2457 31.008 50.5834C31.1424 50.9211 31.331 51.1785 31.5736 51.3555C31.8162 51.5326 32.0998 51.6211 32.4244 51.6211C32.6638 51.6211 32.8785 51.5719 33.0687 51.4735C33.2621 51.3752 33.4211 51.2326 33.5457 51.0457C33.6736 50.8555 33.7572 50.6276 33.7965 50.3621H35.7736C35.7408 50.9391 35.5834 51.4473 35.3015 51.8867C35.0228 52.3227 34.6375 52.6637 34.1457 52.9096C33.6539 53.1555 33.0719 53.2785 32.3998 53.2785Z" fill="white"/>
<path d="M39.2691 53.2735C38.7871 53.2735 38.3576 53.1899 37.9806 53.0227C37.6035 52.8522 37.3051 52.6014 37.0855 52.2703C36.8691 51.9358 36.7609 51.5194 36.7609 51.0211C36.7609 50.6014 36.8379 50.2489 36.992 49.9637C37.1461 49.6785 37.356 49.449 37.6215 49.2752C37.8871 49.1014 38.1888 48.9703 38.5265 48.8817C38.8674 48.7932 39.2248 48.7309 39.5986 48.6949C40.0379 48.6489 40.392 48.6063 40.6609 48.567C40.9297 48.5244 41.1248 48.4621 41.2461 48.3801C41.3674 48.2981 41.4281 48.1768 41.4281 48.0162V47.9867C41.4281 47.6752 41.3297 47.4342 41.133 47.2637C40.9396 47.0932 40.6642 47.008 40.3068 47.008C39.9297 47.008 39.6297 47.0916 39.4068 47.2588C39.1838 47.4227 39.0363 47.6293 38.9642 47.8785L37.0265 47.7211C37.1248 47.2621 37.3183 46.8653 37.6068 46.5309C37.8953 46.1932 38.2674 45.9342 38.7232 45.7539C39.1822 45.5703 39.7133 45.4785 40.3166 45.4785C40.7363 45.4785 41.1379 45.5276 41.5215 45.626C41.9084 45.7244 42.251 45.8768 42.5494 46.0834C42.851 46.2899 43.0887 46.5555 43.2625 46.8801C43.4363 47.2014 43.5232 47.5867 43.5232 48.0358V53.1309H41.5363V52.0834H41.4773C41.356 52.3194 41.1937 52.5276 40.9904 52.708C40.7871 52.885 40.5429 53.0244 40.2576 53.126C39.9724 53.2244 39.6429 53.2735 39.2691 53.2735ZM39.8691 51.8276C40.1773 51.8276 40.4494 51.767 40.6855 51.6457C40.9215 51.5211 41.1068 51.3539 41.2412 51.144C41.3756 50.9342 41.4428 50.6965 41.4428 50.4309V49.6293C41.3773 49.6719 41.2871 49.7112 41.1724 49.7473C41.0609 49.7801 40.9347 49.8112 40.7937 49.8408C40.6527 49.867 40.5117 49.8916 40.3707 49.9145C40.2297 49.9342 40.1019 49.9522 39.9871 49.9686C39.7412 50.0047 39.5265 50.0621 39.3428 50.1408C39.1592 50.2194 39.0166 50.326 38.915 50.4604C38.8133 50.5916 38.7625 50.7555 38.7625 50.9522C38.7625 51.2375 38.8658 51.4555 39.0724 51.6063C39.2822 51.7539 39.5478 51.8276 39.8691 51.8276Z" fill="white"/>
<path d="M149.208 31.4716V30.7465L150.591 30.5004L150.604 26.456L150.591 22.538L149.208 22.3118V21.4937H153.598C154.662 21.4937 155.472 21.7353 156.026 22.2187C156.585 22.6977 156.864 23.4072 156.864 24.3473C156.864 25.2609 156.569 26.0148 155.979 26.609C155.389 27.2033 154.556 27.5004 153.478 27.5004C152.99 27.5004 152.558 27.4782 152.181 27.4339C151.804 27.3895 151.509 27.3474 151.296 27.3075L151.356 26.5625C151.618 26.6201 151.875 26.6578 152.128 26.6755C152.385 26.6933 152.74 26.7021 153.192 26.7021C153.95 26.7021 154.527 26.4937 154.922 26.0769C155.321 25.66 155.52 25.0835 155.52 24.3473C155.52 23.6733 155.332 23.1699 154.955 22.8373C154.578 22.5048 154.035 22.3385 153.325 22.3385H152.075L151.848 22.4848L151.828 26.3895L151.842 30.5337L153.358 30.7465V31.4716H149.208Z" fill="black"/>
<path d="M157.304 31.4716V30.8729L158.289 30.6401L158.302 27.9394L158.289 25.8773L157.304 25.6777V24.9859L159.067 24.7598L159.3 24.9394L159.466 25.6112L159.453 27.9394L159.466 30.6401L160.517 30.8729V31.4716H157.304ZM159.3 26.7554L159.074 26.2964C159.273 25.8573 159.599 25.4915 160.052 25.1988C160.508 24.9061 161.085 24.7598 161.781 24.7598H162.44V26.5425H161.668L161.442 25.6977C161.087 25.6977 160.71 25.782 160.311 25.9505C159.916 26.119 159.579 26.3873 159.3 26.7554Z" fill="black"/>
<path d="M162.719 31.4716V30.8729L163.837 30.6401L163.85 27.9394L163.804 25.8773L162.686 25.6777V24.9859L164.589 24.7598H164.901L165.054 25.0192L165.008 27.9394L165.021 30.6401L166.072 30.8729V31.4716H162.719ZM163.531 22.5646C163.531 22.303 163.604 22.099 163.75 21.9526C163.901 21.8063 164.116 21.7331 164.396 21.7331C164.653 21.7331 164.859 21.8107 165.014 21.9659C165.174 22.1212 165.254 22.3207 165.254 22.5646C165.254 22.8307 165.181 23.0347 165.034 23.1766C164.888 23.3141 164.675 23.3828 164.396 23.3828C164.134 23.3828 163.923 23.3096 163.764 23.1633C163.609 23.0125 163.531 22.813 163.531 22.5646Z" fill="black"/>
<path d="M166.614 31.4716V30.8729L167.598 30.6401L167.612 27.9394L167.598 25.8773L166.614 25.6777V24.9859L168.37 24.7598L168.603 24.9394L168.769 25.6112L168.756 27.9394L168.769 30.6401L169.687 30.8729V31.4716H166.614ZM168.736 26.6755L168.497 26.15C168.7 25.7154 169.049 25.3518 169.541 25.0591C170.033 24.7664 170.554 24.6201 171.104 24.6201C171.796 24.6201 172.315 24.7864 172.661 25.119C173.011 25.4471 173.186 25.8995 173.186 26.476C173.186 26.8041 173.179 27.1301 173.166 27.4538C173.157 27.7775 173.153 27.9394 173.153 27.9394L173.186 30.6401L174.171 30.8729V31.4716H170.951V30.8729L172.002 30.6401L172.015 27.9394V26.7886C172.015 26.4427 171.889 26.1633 171.636 25.9505C171.388 25.7332 171.077 25.6245 170.705 25.6245C170.306 25.6245 169.931 25.7199 169.581 25.9106C169.23 26.1012 168.949 26.3562 168.736 26.6755ZM173.133 26.6755L172.887 26.1633C173.091 25.7243 173.439 25.3584 173.931 25.0658C174.423 24.7686 174.944 24.6201 175.494 24.6201C176.191 24.6201 176.712 24.7864 177.058 25.119C177.408 25.4471 177.583 25.9017 177.583 26.4826C177.583 26.8108 177.576 27.1367 177.563 27.4605C177.554 27.7798 177.55 27.9394 177.55 27.9394L177.583 30.6401L178.568 30.8729V31.4716H175.348V30.8729L176.399 30.6401L176.412 27.9394V26.7886C176.412 26.4427 176.295 26.1633 176.06 25.9505C175.825 25.7332 175.505 25.6245 175.102 25.6245C174.689 25.6245 174.31 25.7199 173.964 25.9106C173.619 26.1012 173.341 26.3562 173.133 26.6755Z" fill="black"/>
<path d="M179.036 28.119C179.036 27.1434 179.331 26.3163 179.921 25.6378C180.515 24.9549 181.293 24.6134 182.256 24.6134C183.134 24.6134 183.821 24.8684 184.318 25.3784C184.819 25.884 185.114 26.5979 185.203 27.5203H184.078C184.025 26.8285 183.832 26.3075 183.5 25.9571C183.172 25.6068 182.71 25.4316 182.116 25.4316C181.566 25.4316 181.121 25.66 180.779 26.1168C180.442 26.5691 180.276 27.19 180.28 27.9793C180.285 28.8618 180.506 29.5381 180.945 30.0082C181.389 30.4738 181.956 30.7066 182.648 30.7066C183.109 30.7066 183.489 30.6601 183.786 30.5669C184.087 30.4738 184.353 30.343 184.584 30.1745L184.956 30.6268C184.744 30.9018 184.44 31.1368 184.045 31.3319C183.65 31.5226 183.158 31.6179 182.568 31.6179C181.517 31.6179 180.666 31.2964 180.014 30.6534C179.362 30.006 179.036 29.1612 179.036 28.119ZM180.094 27.9793V27.2742H184.843L185.203 27.5203V27.9793H180.094Z" fill="black"/>
<path d="M185.505 31.4716V30.8729L186.623 30.6401L186.636 27.9394L186.59 25.8773L185.472 25.6777V24.9859L187.375 24.7598H187.687L187.84 25.0192L187.794 27.9394L187.807 30.6401L188.858 30.8729V31.4716H185.505ZM186.317 22.5646C186.317 22.303 186.39 22.099 186.537 21.9526C186.687 21.8063 186.902 21.7331 187.182 21.7331C187.439 21.7331 187.645 21.8107 187.8 21.9659C187.96 22.1212 188.04 22.3207 188.04 22.5646C188.04 22.8307 187.967 23.0347 187.82 23.1766C187.674 23.3141 187.461 23.3828 187.182 23.3828C186.92 23.3828 186.709 23.3096 186.55 23.1633C186.395 23.0125 186.317 22.813 186.317 22.5646Z" fill="black"/>
<path d="M189.4 31.4716V30.8729L190.385 30.6401L190.398 27.9394L190.385 25.8773L189.4 25.6777V24.9859L191.163 24.7598L191.396 24.9394L191.562 25.6112L191.549 27.9394L191.562 30.6401L192.613 30.8729V31.4716H189.4ZM191.396 26.7554L191.17 26.2964C191.369 25.8573 191.695 25.4915 192.147 25.1988C192.604 24.9061 193.181 24.7598 193.877 24.7598H194.535V26.5425H193.764L193.538 25.6977C193.183 25.6977 192.806 25.782 192.407 25.9505C192.012 26.119 191.675 26.3873 191.396 26.7554Z" fill="black"/>
<path d="M194.556 29.6689C194.556 29.1146 194.899 28.609 195.587 28.1523C196.279 27.6955 197.385 27.3341 198.906 27.068L198.973 27.6534C197.961 27.8042 197.179 28.0392 196.624 28.3585C196.07 28.6733 195.793 29.0791 195.793 29.5758C195.793 29.9749 195.933 30.2765 196.212 30.4805C196.496 30.68 196.842 30.7798 197.25 30.7798C197.684 30.7798 198.075 30.6556 198.42 30.4073C198.766 30.1589 198.959 29.9239 198.999 29.7022L199.252 29.7155C199.261 30.1545 199.013 30.5736 198.507 30.9727C198.006 31.3718 197.405 31.5714 196.704 31.5714C195.999 31.5714 195.465 31.394 195.101 31.0392C194.738 30.6845 194.556 30.2277 194.556 29.6689ZM194.875 25.6112C194.99 25.4028 195.254 25.1855 195.667 24.9593C196.083 24.7287 196.613 24.6134 197.256 24.6134C198.081 24.6134 198.731 24.8352 199.205 25.2786C199.68 25.7221 199.924 26.4893 199.937 27.5802L199.97 30.6401L200.955 30.8729V31.4716H199.259L198.919 31.0725L198.786 30.394L198.806 27.507C198.811 26.7487 198.658 26.2188 198.347 25.9172C198.041 25.6157 197.589 25.4649 196.99 25.4649C196.582 25.4649 196.23 25.5203 195.933 25.6312C195.64 25.7376 195.398 25.8618 195.208 26.0037L194.875 25.6112Z" fill="black"/>
<path d="M205.301 31.4716V30.7465L206.751 30.5137L206.765 26.456L206.751 22.538L205.301 22.3118V21.4937H209.452V22.3118L208.002 22.538L207.989 26.456L208.002 30.5071L209.452 30.7465V31.4716H205.301Z" fill="black"/>
<path d="M209.752 33.2144C209.752 32.833 209.861 32.5248 210.078 32.2898C210.295 32.0592 210.573 31.8574 210.91 31.6845L211.302 31.9505C211.116 32.0836 210.956 32.2299 210.823 32.3896C210.695 32.5537 210.63 32.7643 210.63 33.0215C210.63 33.3408 210.83 33.6113 211.229 33.833C211.632 34.0592 212.258 34.1723 213.105 34.1723C213.983 34.1723 214.619 34.077 215.014 33.8863C215.413 33.7 215.613 33.4206 215.613 33.0481C215.613 32.7466 215.482 32.5514 215.22 32.4627C214.963 32.3741 214.28 32.3297 213.171 32.3297C212.329 32.3297 211.615 32.21 211.029 31.9705C210.444 31.731 210.151 31.323 210.151 30.7465C210.151 30.3341 210.284 29.9926 210.55 29.7221C210.821 29.4472 211.149 29.2543 211.535 29.1434L211.887 29.6224C211.626 29.751 211.422 29.8773 211.276 30.0015C211.129 30.1257 211.056 30.2986 211.056 30.5204C211.056 30.7421 211.211 30.9173 211.522 31.0459C211.832 31.1745 212.437 31.2388 213.338 31.2388C214.491 31.2388 215.34 31.3408 215.885 31.5448C216.431 31.7532 216.704 32.1257 216.704 32.6623C216.704 33.2876 216.433 33.8197 215.892 34.2588C215.355 34.6978 214.393 34.9173 213.005 34.9173C211.95 34.9173 211.142 34.7621 210.584 34.4517C210.029 34.1413 209.752 33.7288 209.752 33.2144ZM210.291 27.2609C210.291 26.4893 210.544 25.8551 211.049 25.3584C211.559 24.8618 212.227 24.6134 213.052 24.6134C213.876 24.6134 214.544 24.844 215.054 25.3052C215.568 25.7664 215.825 26.4072 215.825 27.2276C215.825 27.9948 215.573 28.6534 215.067 29.2033C214.566 29.7532 213.905 30.0281 213.085 30.0281C212.256 30.0281 211.581 29.7754 211.063 29.2698C210.548 28.7598 210.291 28.0902 210.291 27.2609ZM211.495 27.1944C211.495 27.8729 211.637 28.3917 211.921 28.7509C212.209 29.1102 212.586 29.2898 213.052 29.2898C213.553 29.2898 213.939 29.1257 214.209 28.7975C214.48 28.4649 214.615 27.9549 214.615 27.2676C214.615 26.7044 214.473 26.2587 214.189 25.9305C213.905 25.5979 213.531 25.4316 213.065 25.4316C212.568 25.4316 212.182 25.5802 211.907 25.8773C211.632 26.17 211.495 26.609 211.495 27.1944ZM213.783 25.3185L213.684 24.7598H216.803V25.7177L213.783 25.3185Z" fill="black"/>
<path d="M216.754 31.4716V30.8729L217.738 30.6401L217.752 27.9394L217.738 25.8773L216.754 25.6777V24.9859L218.516 24.7598L218.749 24.9394L218.916 25.6112L218.902 27.9394L218.916 30.6401L219.967 30.8729V31.4716H216.754ZM218.749 26.7554L218.523 26.2964C218.723 25.8573 219.049 25.4915 219.501 25.1988C219.958 24.9061 220.534 24.7598 221.23 24.7598H221.889V26.5425H221.117L220.891 25.6977C220.536 25.6977 220.16 25.782 219.76 25.9505C219.366 26.119 219.029 26.3873 218.749 26.7554Z" fill="black"/>
<path d="M222.082 28.119C222.082 27.1434 222.377 26.3163 222.967 25.6378C223.561 24.9549 224.339 24.6134 225.302 24.6134C226.18 24.6134 226.867 24.8684 227.364 25.3784C227.865 25.884 228.16 26.5979 228.249 27.5203H227.124C227.071 26.8285 226.878 26.3075 226.546 25.9571C226.218 25.6068 225.756 25.4316 225.162 25.4316C224.612 25.4316 224.167 25.66 223.825 26.1168C223.488 26.5691 223.322 27.19 223.326 27.9793C223.331 28.8618 223.552 29.5381 223.991 30.0082C224.435 30.4738 225.002 30.7066 225.694 30.7066C226.155 30.7066 226.535 30.6601 226.832 30.5669C227.133 30.4738 227.399 30.343 227.63 30.1745L228.003 30.6268C227.79 30.9018 227.486 31.1368 227.091 31.3319C226.697 31.5226 226.204 31.6179 225.614 31.6179C224.563 31.6179 223.712 31.2964 223.06 30.6534C222.408 30.006 222.082 29.1612 222.082 28.119ZM223.14 27.9793V27.2742H227.889L228.249 27.5203V27.9793H223.14Z" fill="black"/>
<path d="M228.305 34.5315V33.8663L229.509 33.6335L229.496 27.9394L229.456 25.8773L228.339 25.6777V24.9859L230.241 24.7598H230.554L230.707 25.0192L230.667 27.9394L230.68 33.2876C230.68 33.8242 230.563 34.2011 230.328 34.4184C230.097 34.6357 229.78 34.7444 229.376 34.7444L228.305 34.5315ZM229.183 22.5646C229.183 22.303 229.257 22.099 229.403 21.9526C229.554 21.8063 229.769 21.7331 230.048 21.7331C230.31 21.7331 230.518 21.8107 230.673 21.9659C230.829 22.1212 230.906 22.3207 230.906 22.5646C230.906 22.8263 230.833 23.028 230.687 23.1699C230.545 23.3119 230.332 23.3828 230.048 23.3828C229.782 23.3828 229.571 23.3074 229.416 23.1566C229.261 23.0059 229.183 22.8085 229.183 22.5646Z" fill="black"/>
<path d="M231.635 29.6689C231.635 29.1146 231.978 28.609 232.666 28.1523C233.358 27.6955 234.464 27.3341 235.985 27.068L236.052 27.6534C235.04 27.8042 234.258 28.0392 233.703 28.3585C233.149 28.6733 232.872 29.0791 232.872 29.5758C232.872 29.9749 233.012 30.2765 233.291 30.4805C233.575 30.68 233.921 30.7798 234.329 30.7798C234.763 30.7798 235.154 30.6556 235.499 30.4073C235.845 30.1589 236.038 29.9239 236.078 29.7022L236.331 29.7155C236.34 30.1545 236.092 30.5736 235.586 30.9727C235.085 31.3718 234.484 31.5714 233.783 31.5714C233.078 31.5714 232.544 31.394 232.18 31.0392C231.817 30.6845 231.635 30.2277 231.635 29.6689ZM231.954 25.6112C232.069 25.4028 232.333 25.1855 232.746 24.9593C233.162 24.7287 233.692 24.6134 234.335 24.6134C235.16 24.6134 235.81 24.8352 236.284 25.2786C236.759 25.7221 237.003 26.4893 237.016 27.5802L237.049 30.6401L238.034 30.8729V31.4716H236.338L235.998 31.0725L235.865 30.394L235.885 27.507C235.89 26.7487 235.737 26.2188 235.426 25.9172C235.12 25.6157 234.668 25.4649 234.069 25.4649C233.661 25.4649 233.309 25.5203 233.012 25.6312C232.719 25.7376 232.477 25.8618 232.287 26.0037L231.954 25.6112Z" fill="black"/>
<path d="M149.208 47.4716V46.7465L150.591 46.5071L150.604 42.2565L150.591 38.538L149.208 38.3118V37.4937H153.305C154.25 37.4937 154.948 37.6999 155.401 38.1123C155.857 38.5203 156.086 39.0413 156.086 39.6755C156.086 40.2742 155.944 40.7775 155.66 41.1855C155.381 41.589 154.99 41.844 154.489 41.9505V41.997C155.101 42.1256 155.622 42.4006 156.052 42.8219C156.483 43.2432 156.698 43.833 156.698 44.5913C156.698 45.4206 156.407 46.108 155.826 46.6534C155.245 47.1989 154.44 47.4716 153.412 47.4716H149.208ZM151.835 46.5137L152.121 46.6468H152.999C153.824 46.6468 154.432 46.4782 154.822 46.1412C155.212 45.8042 155.407 45.272 155.407 44.5447C155.407 43.9195 155.236 43.4383 154.895 43.1013C154.558 42.7642 154.072 42.5957 153.438 42.5957H151.822V42.6888L151.835 46.5137ZM151.828 41.6378L151.822 41.7908H152.933C153.562 41.7908 154.037 41.64 154.356 41.3385C154.675 41.0325 154.835 40.5779 154.835 39.9748C154.835 39.4338 154.68 39.0391 154.369 38.7908C154.059 38.5424 153.602 38.4183 152.999 38.4183H152.041L151.848 38.538L151.828 41.6378Z" fill="black"/>
<path d="M157.052 45.6689C157.052 45.1146 157.395 44.609 158.083 44.1523C158.774 43.6955 159.881 43.3341 161.402 43.068L161.468 43.6534C160.457 43.8042 159.675 44.0392 159.12 44.3585C158.566 44.6733 158.289 45.0791 158.289 45.5758C158.289 45.9749 158.429 46.2765 158.708 46.4805C158.992 46.68 159.338 46.7798 159.746 46.7798C160.18 46.7798 160.57 46.6556 160.916 46.4073C161.262 46.1589 161.455 45.9239 161.495 45.7022L161.748 45.7155C161.757 46.1545 161.508 46.5736 161.003 46.9727C160.502 47.3718 159.901 47.5714 159.2 47.5714C158.495 47.5714 157.961 47.394 157.597 47.0392C157.233 46.6845 157.052 46.2277 157.052 45.6689ZM157.371 41.6112C157.486 41.4028 157.75 41.1855 158.162 40.9593C158.579 40.7287 159.109 40.6134 159.752 40.6134C160.577 40.6134 161.227 40.8352 161.701 41.2786C162.176 41.7221 162.42 42.4893 162.433 43.5802L162.466 46.6401L163.451 46.8729V47.4716H161.755L161.415 47.0725L161.282 46.394L161.302 43.507C161.307 42.7487 161.154 42.2188 160.843 41.9172C160.537 41.6157 160.085 41.4649 159.486 41.4649C159.078 41.4649 158.726 41.5203 158.429 41.6312C158.136 41.7376 157.894 41.8618 157.703 42.0037L157.371 41.6112Z" fill="black"/>
<path d="M163.47 41.6777V41.119C163.98 40.9948 164.363 40.7731 164.621 40.4538C164.878 40.1345 165.077 39.8351 165.219 39.5558H165.632L165.838 39.8085L165.725 43.9394L165.785 46.3009L166.111 46.68H167.055V47.2787L165.485 47.5248C165.14 47.5248 164.889 47.4361 164.734 47.2587C164.583 47.0769 164.508 46.7776 164.508 46.3607L164.554 43.9394V41.7576L163.47 41.6777ZM165.459 41.6777L165.485 40.9327H167.208V41.6777H165.459Z" fill="black"/>
<path d="M167.595 47.4716V46.8729L168.713 46.6401L168.726 43.9394L168.679 41.8773L167.562 41.6777V40.9859L169.464 40.7598H169.777L169.93 41.0192L169.883 43.9394L169.897 46.6401L170.948 46.8729V47.4716H167.595ZM168.407 38.5646C168.407 38.303 168.48 38.099 168.626 37.9526C168.777 37.8063 168.992 37.7331 169.271 37.7331C169.529 37.7331 169.735 37.8107 169.89 37.9659C170.05 38.1212 170.129 38.3207 170.129 38.5646C170.129 38.8307 170.056 39.0347 169.91 39.1766C169.764 39.3141 169.551 39.3828 169.271 39.3828C169.01 39.3828 168.799 39.3096 168.639 39.1633C168.484 39.0125 168.407 38.813 168.407 38.5646Z" fill="black"/>
<path d="M171.323 47.4716V45.19H172.088L172.401 46.6867L171.969 47.4716H171.323ZM171.576 42.3828C171.576 41.8906 171.754 41.4737 172.108 41.1323C172.463 40.7864 173.011 40.6134 173.751 40.6134C174.275 40.6134 174.683 40.6866 174.975 40.8329C175.272 40.9748 175.514 41.1367 175.7 41.3185L175.361 41.8973C175.21 41.7775 174.986 41.6534 174.689 41.5247C174.392 41.3961 174.086 41.3318 173.771 41.3318C173.368 41.3318 173.075 41.4139 172.893 41.578C172.711 41.7376 172.621 41.9438 172.621 42.1966C172.621 42.4627 172.716 42.6733 172.907 42.8285C173.097 42.9793 173.545 43.1523 174.25 43.3474C174.938 43.5425 175.488 43.7953 175.9 44.1057C176.317 44.4161 176.525 44.8929 176.525 45.5359C176.525 46.108 176.306 46.5958 175.867 46.9993C175.432 47.4029 174.853 47.6046 174.131 47.6046C173.474 47.6046 172.949 47.4827 172.554 47.2388C172.164 46.9904 171.809 46.6623 171.49 46.2543L172.128 45.8219C172.221 46.0836 172.445 46.323 172.8 46.5403C173.159 46.7532 173.552 46.8596 173.978 46.8596C174.421 46.8596 174.778 46.7598 175.048 46.5603C175.323 46.3563 175.461 46.0747 175.461 45.7155C175.461 45.3518 175.319 45.0791 175.035 44.8973C174.751 44.7155 174.248 44.5181 173.525 44.3053C172.789 44.0924 172.279 43.8418 171.995 43.5536C171.716 43.2653 171.576 42.8751 171.576 42.3828ZM174.942 41.5314L175.321 40.7598H175.966V42.7554H175.201L174.942 41.5314Z" fill="black"/>
<path d="M176.551 41.6777V41.119C177.061 40.9948 177.444 40.7731 177.702 40.4538C177.959 40.1345 178.158 39.8351 178.3 39.5558H178.713L178.919 39.8085L178.806 43.9394L178.866 46.3009L179.192 46.68H180.136V47.2787L178.566 47.5248C178.221 47.5248 177.97 47.4361 177.815 47.2587C177.664 47.0769 177.589 46.7776 177.589 46.3607L177.635 43.9394V41.7576L176.551 41.6777ZM178.54 41.6777L178.566 40.9327H180.289V41.6777H178.54Z" fill="black"/>
<path d="M180.417 45.6689C180.417 45.1146 180.76 44.609 181.448 44.1523C182.139 43.6955 183.246 43.3341 184.767 43.068L184.834 43.6534C183.822 43.8042 183.04 44.0392 182.485 44.3585C181.931 44.6733 181.654 45.0791 181.654 45.5758C181.654 45.9749 181.794 46.2765 182.073 46.4805C182.357 46.68 182.703 46.7798 183.111 46.7798C183.545 46.7798 183.936 46.6556 184.281 46.4073C184.627 46.1589 184.82 45.9239 184.86 45.7022L185.113 45.7155C185.122 46.1545 184.873 46.5736 184.368 46.9727C183.867 47.3718 183.266 47.5714 182.565 47.5714C181.86 47.5714 181.326 47.394 180.962 47.0392C180.598 46.6845 180.417 46.2277 180.417 45.6689ZM180.736 41.6112C180.851 41.4028 181.115 41.1855 181.527 40.9593C181.944 40.7287 182.474 40.6134 183.117 40.6134C183.942 40.6134 184.592 40.8352 185.066 41.2786C185.541 41.7221 185.785 42.4893 185.798 43.5802L185.831 46.6401L186.816 46.8729V47.4716H185.12L184.78 47.0725L184.647 46.394L184.667 43.507C184.672 42.7487 184.519 42.2188 184.208 41.9172C183.902 41.6157 183.45 41.4649 182.851 41.4649C182.443 41.4649 182.091 41.5203 181.794 41.6312C181.501 41.7376 181.259 41.8618 181.069 42.0037L180.736 41.6112Z" fill="black"/>
<path d="M191.069 44.2654C191.069 43.17 191.368 42.2897 191.967 41.6245C192.57 40.9593 193.364 40.6267 194.349 40.6267C194.823 40.6267 195.278 40.7132 195.712 40.8862C196.147 41.0547 196.433 41.2587 196.57 41.4981L196.304 42.2565C196.162 41.9904 195.941 41.7797 195.639 41.6245C195.342 41.4693 194.974 41.3917 194.535 41.3917C193.865 41.3917 193.331 41.6533 192.932 42.1766C192.537 42.6955 192.34 43.3407 192.34 44.1124C192.34 44.915 192.521 45.5403 192.885 45.9882C193.249 46.4317 193.723 46.6534 194.309 46.6534C194.77 46.6534 195.171 46.5603 195.513 46.374C195.859 46.1833 196.125 45.935 196.311 45.629L196.557 46.0481C196.362 46.4782 196.04 46.833 195.592 47.1124C195.149 47.3918 194.601 47.5315 193.949 47.5315C193.129 47.5315 192.444 47.2388 191.894 46.6534C191.344 46.0636 191.069 45.2676 191.069 44.2654ZM195.087 38.1788V37.4937L196.989 37.2675H197.196L197.382 37.4804L197.362 43.8729L197.422 46.6401L198.413 46.8729V47.4716H196.73L196.391 47.0725L196.258 46.394L196.271 43.8795L196.198 38.3784L195.087 38.1788Z" fill="black"/>
<path d="M198.776 44.119C198.776 43.1434 199.071 42.3163 199.661 41.6378C200.255 40.9549 201.034 40.6134 201.996 40.6134C202.874 40.6134 203.561 40.8684 204.058 41.3784C204.559 41.884 204.854 42.5979 204.943 43.5203H203.819C203.765 42.8285 203.573 42.3075 203.24 41.9571C202.912 41.6068 202.451 41.4316 201.856 41.4316C201.306 41.4316 200.861 41.66 200.519 42.1168C200.182 42.5691 200.016 43.19 200.02 43.9793C200.025 44.8618 200.247 45.5381 200.686 46.0082C201.129 46.4738 201.697 46.7066 202.388 46.7066C202.85 46.7066 203.229 46.6601 203.526 46.5669C203.828 46.4738 204.094 46.343 204.324 46.1745L204.697 46.6268C204.484 46.9018 204.18 47.1368 203.785 47.3319C203.391 47.5226 202.898 47.6179 202.309 47.6179C201.258 47.6179 200.406 47.2964 199.754 46.6534C199.102 46.006 198.776 45.1612 198.776 44.119ZM199.834 43.9793V43.2742H204.584L204.943 43.5203V43.9793H199.834Z" fill="black"/>
<path d="M209.167 47.4716V46.7465L210.551 46.5004L210.564 42.456L210.551 38.538L209.167 38.3118V37.4937H213.558C214.622 37.4937 215.431 37.7353 215.986 38.2187C216.544 38.6977 216.824 39.4072 216.824 40.3473C216.824 41.2609 216.529 42.0148 215.939 42.609C215.349 43.2033 214.515 43.5004 213.438 43.5004C212.95 43.5004 212.518 43.4782 212.141 43.4339C211.764 43.3895 211.469 43.3474 211.256 43.3075L211.316 42.5625C211.577 42.6201 211.835 42.6578 212.087 42.6755C212.345 42.6933 212.699 42.7021 213.152 42.7021C213.91 42.7021 214.487 42.4937 214.881 42.0769C215.28 41.66 215.48 41.0835 215.48 40.3473C215.48 39.6733 215.291 39.1699 214.915 38.8373C214.538 38.5048 213.994 38.3385 213.285 38.3385H212.034L211.808 38.4848L211.788 42.3895L211.801 46.5337L213.318 46.7465V47.4716H209.167Z" fill="black"/>
<path d="M217.011 45.6689C217.011 45.1146 217.355 44.609 218.042 44.1523C218.734 43.6955 219.841 43.3341 221.362 43.068L221.428 43.6534C220.417 43.8042 219.634 44.0392 219.08 44.3585C218.526 44.6733 218.249 45.0791 218.249 45.5758C218.249 45.9749 218.388 46.2765 218.668 46.4805C218.951 46.68 219.297 46.7798 219.705 46.7798C220.14 46.7798 220.53 46.6556 220.876 46.4073C221.222 46.1589 221.415 45.9239 221.455 45.7022L221.708 45.7155C221.716 46.1545 221.468 46.5736 220.963 46.9727C220.461 47.3718 219.861 47.5714 219.16 47.5714C218.455 47.5714 217.92 47.394 217.557 47.0392C217.193 46.6845 217.011 46.2277 217.011 45.6689ZM217.331 41.6112C217.446 41.4028 217.71 41.1855 218.122 40.9593C218.539 40.7287 219.069 40.6134 219.712 40.6134C220.537 40.6134 221.186 40.8352 221.661 41.2786C222.136 41.7221 222.379 42.4893 222.393 43.5802L222.426 46.6401L223.41 46.8729V47.4716H221.714L221.375 47.0725L221.242 46.394L221.262 43.507C221.266 42.7487 221.113 42.2188 220.803 41.9172C220.497 41.6157 220.045 41.4649 219.446 41.4649C219.038 41.4649 218.685 41.5203 218.388 41.6312C218.096 41.7376 217.854 41.8618 217.663 42.0037L217.331 41.6112Z" fill="black"/>
<path d="M223.829 47.4716V46.8729L224.906 46.6401L224.92 43.966L224.906 38.385L223.669 38.1855V37.4937L225.691 37.2675L225.937 37.2808L226.09 37.487L226.077 43.966L226.09 46.6401L227.141 46.8729V47.4716H223.829Z" fill="black"/>
<path d="M227.691 47.4716V46.8729L228.675 46.6401L228.689 43.9394L228.675 41.8773L227.691 41.6777V40.9859L229.447 40.7598L229.68 40.9394L229.846 41.6112L229.833 43.9394L229.846 46.6401L230.764 46.8729V47.4716H227.691ZM229.813 42.6755L229.574 42.15C229.778 41.7154 230.126 41.3518 230.618 41.0591C231.11 40.7664 231.631 40.6201 232.181 40.6201C232.873 40.6201 233.392 40.7864 233.738 41.119C234.088 41.4471 234.263 41.8995 234.263 42.476C234.263 42.8041 234.256 43.1301 234.243 43.4538C234.234 43.7775 234.23 43.9394 234.23 43.9394L234.263 46.6401L235.248 46.8729V47.4716H232.028V46.8729L233.079 46.6401L233.092 43.9394V42.7886C233.092 42.4427 232.966 42.1633 232.713 41.9505C232.465 41.7332 232.154 41.6245 231.782 41.6245C231.383 41.6245 231.008 41.7199 230.658 41.9106C230.307 42.1012 230.026 42.3562 229.813 42.6755ZM234.21 42.6755L233.964 42.1633C234.168 41.7243 234.516 41.3584 235.008 41.0658C235.5 40.7686 236.021 40.6201 236.571 40.6201C237.268 40.6201 237.789 40.7864 238.135 41.119C238.485 41.4471 238.66 41.9017 238.66 42.4826C238.66 42.8108 238.653 43.1367 238.64 43.4605C238.631 43.7798 238.627 43.9394 238.627 43.9394L238.66 46.6401L239.645 46.8729V47.4716H236.425V46.8729L237.476 46.6401L237.489 43.9394V42.7886C237.489 42.4427 237.372 42.1633 237.137 41.9505C236.902 41.7332 236.582 41.6245 236.179 41.6245C235.766 41.6245 235.387 41.7199 235.041 41.9106C234.696 42.1012 234.418 42.3562 234.21 42.6755Z" fill="black"/>
<path d="M239.94 45.6689C239.94 45.1146 240.284 44.609 240.971 44.1523C241.663 43.6955 242.77 43.3341 244.291 43.068L244.357 43.6534C243.346 43.8042 242.563 44.0392 242.009 44.3585C241.455 44.6733 241.178 45.0791 241.178 45.5758C241.178 45.9749 241.317 46.2765 241.597 46.4805C241.88 46.68 242.226 46.7798 242.634 46.7798C243.069 46.7798 243.459 46.6556 243.805 46.4073C244.151 46.1589 244.344 45.9239 244.384 45.7022L244.637 45.7155C244.645 46.1545 244.397 46.5736 243.892 46.9727C243.39 47.3718 242.79 47.5714 242.089 47.5714C241.384 47.5714 240.849 47.394 240.486 47.0392C240.122 46.6845 239.94 46.2277 239.94 45.6689ZM240.26 41.6112C240.375 41.4028 240.639 41.1855 241.051 40.9593C241.468 40.7287 241.998 40.6134 242.641 40.6134C243.466 40.6134 244.116 40.8352 244.59 41.2786C245.065 41.7221 245.308 42.4893 245.322 43.5802L245.355 46.6401L246.339 46.8729V47.4716H244.643L244.304 47.0725L244.171 46.394L244.191 43.507C244.195 42.7487 244.042 42.2188 243.732 41.9172C243.426 41.6157 242.974 41.4649 242.375 41.4649C241.967 41.4649 241.614 41.5203 241.317 41.6312C241.025 41.7376 240.783 41.8618 240.592 42.0037L240.26 41.6112Z" fill="black"/>
<path d="M246.591 47.4716V45.19H247.356L247.669 46.6867L247.237 47.4716H246.591ZM246.844 42.3828C246.844 41.8906 247.022 41.4737 247.376 41.1323C247.731 40.7864 248.279 40.6134 249.019 40.6134C249.543 40.6134 249.951 40.6866 250.243 40.8329C250.54 40.9748 250.782 41.1367 250.968 41.3185L250.629 41.8973C250.478 41.7775 250.254 41.6534 249.957 41.5247C249.66 41.3961 249.354 41.3318 249.039 41.3318C248.636 41.3318 248.343 41.4139 248.161 41.578C247.979 41.7376 247.889 41.9438 247.889 42.1966C247.889 42.4627 247.984 42.6733 248.175 42.8285C248.365 42.9793 248.813 43.1523 249.518 43.3474C250.206 43.5425 250.756 43.7953 251.168 44.1057C251.585 44.4161 251.793 44.8929 251.793 45.5359C251.793 46.108 251.574 46.5958 251.135 46.9993C250.7 47.4029 250.121 47.6046 249.399 47.6046C248.742 47.6046 248.217 47.4827 247.822 47.2388C247.432 46.9904 247.077 46.6623 246.758 46.2543L247.396 45.8219C247.489 46.0836 247.713 46.323 248.068 46.5403C248.427 46.7532 248.82 46.8596 249.246 46.8596C249.689 46.8596 250.046 46.7598 250.317 46.5603C250.591 46.3563 250.729 46.0747 250.729 45.7155C250.729 45.3518 250.587 45.0791 250.303 44.8973C250.019 44.7155 249.516 44.5181 248.793 44.3053C248.057 44.0924 247.547 43.8418 247.263 43.5536C246.984 43.2653 246.844 42.8751 246.844 42.3828ZM250.21 41.5314L250.589 40.7598H251.234V42.7554H250.47L250.21 41.5314Z" fill="black"/>
</svg>
